<?xml version="1.0" encoding="UTF-8" standalone="no"?>
<!-- Created with Inkscape (http://www.inkscape.org/) -->

<svg
   xmlns:dc="http://purl.org/dc/elements/1.1/"
   xmlns:cc="http://creativecommons.org/ns#"
   xmlns:rdf="http://www.w3.org/1999/02/22-rdf-syntax-ns#"
   xmlns:svg="http://www.w3.org/2000/svg"
   xmlns="http://www.w3.org/2000/svg"
   xmlns:sodipodi="http://sodipodi.sourceforge.net/DTD/sodipodi-0.dtd"
   xmlns:inkscape="http://www.inkscape.org/namespaces/inkscape"
   version="1.1"
   id="svg2"
   xml:space="preserve"
   width="831.50665"
   height="831.50665"
   viewBox="0 0 831.50665 831.50665"
   sodipodi:docname="publicdomainq-0009735mqnjjw_panda.svg"
   inkscape:version="0.92.4 (5da689c313, 2019-01-14)"><metadata
     id="metadata8"><rdf:RDF><cc:Work
         rdf:about=""><dc:format>image/svg+xml</dc:format><dc:type
           rdf:resource="http://purl.org/dc/dcmitype/StillImage" /><dc:title></dc:title></cc:Work></rdf:RDF></metadata><defs
     id="defs6" /><sodipodi:namedview
     pagecolor="#ffffff"
     bordercolor="#666666"
     borderopacity="1"
     objecttolerance="10"
     gridtolerance="10"
     guidetolerance="10"
     inkscape:pageopacity="0"
     inkscape:pageshadow="2"
     inkscape:window-width="1920"
     inkscape:window-height="1016"
     id="namedview4"
     showgrid="false"
     inkscape:zoom="0.28382214"
     inkscape:cx="422.79999"
     inkscape:cy="415.75333"
     inkscape:window-x="0"
     inkscape:window-y="27"
     inkscape:window-maximized="1"
     inkscape:current-layer="g10" /><g
     id="g10"
     inkscape:groupmode="layer"
     inkscape:label="ink_ext_XXXXXX"
     transform="matrix(1.3333333,0,0,-1.3333333,0,831.50667)"><g
       id="g12"
       transform="scale(0.1)"><path
         d="m 3915.27,4689.12 c -17.76,0 -35.28,4.73 -50.72,13.81 l -388.28,228.44 c -31.75,18.69 -50.67,53.33 -49.21,90.15 0.5,12.57 13.07,309.89 86.65,500.22 68.04,175.81 298.67,318.81 514.11,318.81 102.8,0 197.96,-32.45 275.21,-93.84 244.08,-193.83 294.74,-484.07 132.17,-757.45 -148.68,-250.26 -492.53,-297.42 -507.1,-299.31 -4.27,-0.56 -8.56,-0.83 -12.83,-0.83 z m -284.72,383.52 303.39,-178.48 c 72.83,15.61 251.42,66.14 329.33,197.29 65.1,109.47 140.64,319.76 -84.64,498.66 -42.13,33.48 -92.86,50.44 -150.81,50.44 -142.86,0 -293.41,-102.65 -327.57,-190.96 -41.37,-106.99 -61.78,-275.75 -69.7,-376.95"
         style="fill:#523209;fill-opacity:1;fill-rule:nonzero;stroke:none"
         id="path14"
         inkscape:connector-curvature="0" /><path
         d="m 2706.11,2877.32 c -196.54,0 -377.75,70.15 -529.43,206.06 -240.82,215.78 -379.6,576.74 -371.24,965.55 11.51,536.43 384.53,1135.95 636.28,1313 513.74,360.87 922.83,256.14 1167.3,193.57 l 5.64,-1.46 c 53.5,-13.69 85.78,-68.16 72.09,-121.66 -13.69,-53.5 -68.12,-85.79 -121.67,-72.09 l -5.67,1.45 c -238.17,60.97 -564.35,144.48 -1002.68,-163.43 -188.46,-132.55 -540.99,-671.27 -551.33,-1153.68 -7.13,-331.27 106.8,-634.93 304.75,-812.3 135.45,-121.37 302.23,-172.99 482.44,-149.22 54.7,7.26 104.99,-31.31 112.21,-86.08 7.22,-54.74 -31.32,-104.99 -86.08,-112.21 -38.01,-5 -75.6,-7.5 -112.61,-7.5"
         style="fill:#523209;fill-opacity:1;fill-rule:nonzero;stroke:none"
         id="path16"
         inkscape:connector-curvature="0" /><path
         d="m 2076.07,4617.29 c -13.74,0 -27.7,2.85 -41.04,8.87 -140.76,63.45 -234.26,178.83 -263.28,324.88 -37.1,186.77 36.36,416.8 182.8,572.4 109.08,115.92 214.23,119.5 283.25,102.06 149.62,-37.77 258.85,-213.28 300.74,-370.48 14.22,-53.36 -17.52,-108.16 -70.89,-122.38 -53.31,-14.19 -108.16,17.52 -122.38,70.9 -29.19,109.58 -100.82,214.01 -156.41,228.04 -24.77,6.24 -54.56,-8.98 -88.65,-45.2 -102.61,-109.02 -157,-272 -132.29,-396.38 16.53,-83.24 66.77,-144.31 149.3,-181.51 50.35,-22.7 72.76,-81.91 50.07,-132.26 -16.68,-37.01 -53.1,-58.93 -91.22,-58.94"
         style="fill:#523209;fill-opacity:1;fill-rule:nonzero;stroke:none"
         id="path18"
         inkscape:connector-curvature="0" /><path
         d="m 3636.75,3806.46 c -238.39,0 -419.37,160.57 -492.99,319.69 -53.53,115.71 -48.16,228.72 14.36,302.31 66.77,78.55 161.29,120.04 273.38,120.04 165.05,0 362.05,-98.64 421.6,-211.11 62.93,-118.71 122.35,-286.23 47.94,-409.9 -33.23,-55.21 -106.04,-121.03 -264.29,-121.03 z M 3431.5,4348.5 c -53.07,0 -92.64,-16.21 -120.99,-49.54 -4.35,-5.12 -9.21,-37 14.76,-88.83 45.39,-98.09 162.21,-203.67 311.48,-203.67 57.8,0 85.9,12.47 92.92,24.14 15.77,26.22 2.53,107.85 -53.3,213.17 -16.5,30.23 -131.98,104.73 -244.87,104.73"
         style="fill:#523209;fill-opacity:1;fill-rule:nonzero;stroke:none"
         id="path20"
         inkscape:connector-curvature="0" /><path
         d="m 2412.47,3436.34 c -34.08,0 -84.76,10.05 -132.65,57.9 -95.13,95.27 -146.97,373.72 -68.77,576.72 58.09,150.8 177.22,238.27 335.47,246.32 3.71,0.18 7.29,0.27 10.82,0.27 67.45,0 127.33,-31.27 168.63,-88.05 67.17,-92.35 76.05,-236.86 24.35,-396.49 -30.02,-93 -143.21,-396.67 -337.85,-396.67 z m 144.87,681.21 c -78.87,-4 -129.14,-41 -158.87,-116.47 -54.53,-138.44 -11.02,-318.08 18.75,-360.44 31.06,21.41 95.19,106.44 142.8,253.9 46.88,144.76 10.21,218.1 -1.19,222.89 0,-0.01 0,-0.01 0,-0.01 0,0 -0.43,0.13 -1.49,0.13"
         style="fill:#523209;fill-opacity:1;fill-rule:nonzero;stroke:none"
         id="path22"
         inkscape:connector-curvature="0" /><path
         d="m 3008.86,3416.39 c -110.79,0 -197.58,76.04 -197.58,173.12 0,97.08 86.79,173.13 197.58,173.13 110.7,0 197.42,-76.05 197.42,-173.13 0,-97.08 -86.72,-173.12 -197.42,-173.12 z m -0.08,187.85 c -1.48,-4.1 -2.5,-9.04 -2.5,-14.73 0,-5.68 1.02,-10.62 2.5,-14.72 1.48,4.1 2.5,9.04 2.5,14.72 0,5.69 -1.02,10.62 -2.5,14.73"
         style="fill:#523209;fill-opacity:1;fill-rule:nonzero;stroke:none"
         id="path24"
         inkscape:connector-curvature="0" /><path
         d="m 3107.47,3197.54 c -34.24,0 -67.59,17.6 -86.24,49.24 -28.39,48.15 -79.69,194.52 -94.73,238.23 -17.98,52.22 9.77,109.12 62,127.1 52.21,17.98 109.11,-9.77 127.1,-62 27.82,-80.79 65.77,-181.15 77.92,-201.77 28.04,-47.58 12.21,-108.88 -35.36,-136.92 -15.94,-9.41 -33.43,-13.88 -50.69,-13.88"
         style="fill:#523209;fill-opacity:1;fill-rule:nonzero;stroke:none"
         id="path26"
         inkscape:connector-curvature="0" /><path
         d="m 2758.93,2754.88 c -8.16,0 -16.45,1.01 -24.72,3.11 -53.52,13.61 -85.88,68.04 -72.26,121.56 4.27,16.84 108.58,413.5 433.5,524.15 20.17,6.89 42.01,7.14 62.36,0.69 l 472.58,-149.29 c 52.66,-16.64 81.87,-72.81 65.23,-125.48 -16.64,-52.66 -72.8,-81.91 -125.48,-65.23 l -438.83,138.64 c -198.54,-90.24 -274.79,-369.85 -275.54,-372.78 -11.51,-45.25 -52.19,-75.37 -96.84,-75.37"
         style="fill:#523209;fill-opacity:1;fill-rule:nonzero;stroke:none"
         id="path28"
         inkscape:connector-curvature="0" /><path
         d="m 2856.43,2477.56 c -52.81,0 -96.95,41.37 -99.78,94.73 -2.91,55.14 39.44,102.21 94.59,105.13 395.75,20.91 589.31,512.23 591.15,517.18 19.26,51.77 76.82,78.1 128.59,58.88 51.77,-19.25 78.12,-76.82 58.88,-128.59 -32.75,-88.05 -111.73,-236.28 -226.55,-364.21 -156.76,-174.7 -344.02,-272.54 -541.52,-282.98 -1.8,-0.09 -3.59,-0.14 -5.36,-0.14"
         style="fill:#523209;fill-opacity:1;fill-rule:nonzero;stroke:none"
         id="path30"
         inkscape:connector-curvature="0" /><path
         d="m 5026.47,2245.99 c -49.99,0 -93.18,37.41 -99.18,88.28 -70.07,593.17 -172.61,916.48 -254.99,1176.27 -38.72,122.08 -75.28,237.38 -103.01,362.03 -50.59,227.79 -115.01,351.81 -212.5,539.51 -59,113.6 -132.43,254.97 -220.25,453.73 -22.33,50.52 0.52,109.57 51.04,131.89 50.55,22.32 109.57,-0.54 131.88,-51.05 85.29,-193 154.11,-325.49 214.82,-442.38 100.99,-194.47 173.97,-334.97 230.24,-588.31 25.8,-116 59.46,-222.1 98.41,-344.96 84.95,-267.86 190.68,-601.21 262.97,-1213.28 6.48,-54.84 -32.72,-104.56 -87.58,-111.03 -3.98,-0.47 -7.94,-0.7 -11.85,-0.7"
         style="fill:#523209;fill-opacity:1;fill-rule:nonzero;stroke:none"
         id="path32"
         inkscape:connector-curvature="0" /><path
         d="m 4593.07,440.684 c -149.28,0 -268.77,26.414 -365.3,80.75 -236.82,133.007 -416.13,528.056 -301.48,857.576 49.52,142.36 201.99,398.89 419.72,625.73 179.82,187.34 458.59,410.67 765.45,410.67 l 7.79,-0.05 c 152.22,-1.84 314.53,-70.61 434.13,-183.95 100.12,-94.87 219.46,-265.18 219.46,-537.76 0,-165.63 -20.51,-484.11 -157.93,-756.177 -150.33,-297.602 -402.76,-462.766 -730.03,-477.618 -22.28,-1.015 -50.06,-3.632 -82.23,-6.671 -59.06,-5.567 -132.58,-12.5 -209.58,-12.5 z m 518.39,1774.726 c -184.44,0 -405.04,-124 -621.16,-349.17 -188.18,-196.06 -331.15,-426.57 -375.12,-552.95 -78.25,-224.91 50.41,-527.548 210.61,-617.528 65.88,-37.078 153.27,-55.078 267.28,-55.078 67.59,0 133.06,6.171 190.81,11.621 33.31,3.136 64.78,6.105 91.92,7.332 258.06,11.718 441.43,132.101 560.59,368.003 118.73,235.07 136.45,518.17 136.45,666.01 0,356.04 -266.68,519.42 -456.05,521.73 l -5.33,0.03"
         style="fill:#523209;fill-opacity:1;fill-rule:nonzero;stroke:none"
         id="path34"
         inkscape:connector-curvature="0" /><path
         d="m 3328.94,232.559 c -46.19,-0.008 -95.4,2.648 -147.98,8.312 -33.62,3.621 -63.14,23.984 -78.45,54.141 -9.02,17.773 -218.72,438.933 -13.08,757.828 29.92,46.41 91.8,59.8 138.23,29.86 46.41,-29.94 59.79,-91.821 29.85,-138.235 -109.31,-169.531 -37.21,-407.902 2.33,-509.711 255.93,-16.25 426.76,53.398 508.1,207.629 51.99,98.574 69.51,235.808 49.34,386.417 -18.26,136.32 -58.51,225.41 -74.01,248.01 -38.78,27.48 -53.49,79.61 -32.54,124.12 23.51,49.97 83.1,71.43 133.05,47.89 87.23,-41.05 134.81,-205.93 155.42,-300.56 20.97,-96.23 48.34,-285.42 -3.79,-471.151 -48.5,-172.863 -199.28,-444.531 -666.47,-444.55"
         style="fill:#523209;fill-opacity:1;fill-rule:nonzero;stroke:none"
         id="path36"
         inkscape:connector-curvature="0" /><path
         d="m 2600.34,331.699 c -42.21,0 -79.89,26.516 -94.14,66.258 -36.51,101.887 -92.07,287.59 -53.94,386.625 19.84,51.539 77.74,77.227 129.25,57.391 50.88,-19.59 76.58,-76.258 58.12,-127.297 -4.94,-25.196 9.37,-101.199 32.39,-179.883 226.38,19.672 364.5,126.352 366.01,127.539 43,34.66 105.73,27.734 140.39,-15.273 34.66,-42.985 27.69,-106.121 -15.31,-140.789 -8.84,-7.129 -220.47,-174.571 -562.77,-174.571"
         style="fill:#523209;fill-opacity:1;fill-rule:nonzero;stroke:none"
         id="path38"
         inkscape:connector-curvature="0" /><path
         d="m 1880.93,362.246 c -40.82,0 -77.87,24.93 -93.01,63.352 -8.54,21.695 -206.68,535.39 21.01,881.482 121,183.94 332.9,281.99 629.79,291.45 55.1,1.56 101.38,-41.57 103.14,-96.77 1.76,-55.21 -41.57,-101.38 -96.77,-103.14 -228.09,-7.25 -385.91,-75.04 -469.07,-201.46 -120.49,-183.15 -72.39,-470.578 -25.93,-627.578 604.06,77.813 682.46,527.888 685.61,547.778 7.96,54.64 58.63,92.14 113.35,84.21 54.65,-7.98 92.43,-59.03 84.47,-113.68 -1.03,-7.03 -26.62,-174.035 -158.3,-345.87 -119.58,-156.032 -353.2,-348.543 -787.13,-379.52 -2.39,-0.176 -4.79,-0.254 -7.16,-0.254"
         style="fill:#523209;fill-opacity:1;fill-rule:nonzero;stroke:none"
         id="path40"
         inkscape:connector-curvature="0" /><path
         d="m 1414,546.434 c -231.38,-0.008 -399.59,78.859 -512.738,162.187 -191.035,140.688 -267.735,323.509 -270.91,331.219 -15.602,37.97 -6.422,81.62 23.148,110.08 359.18,345.68 709.9,407.38 940.44,398.3 253.35,-9.97 421.45,-105.18 428.48,-109.22 47.87,-27.57 64.33,-88.7 36.78,-136.57 -27.49,-47.73 -88.39,-64.23 -136.2,-36.98 -3.35,1.87 -141.18,77.38 -346.59,83.26 -255.24,7.15 -500.27,-91 -729.277,-292.32 85.172,-138.003 351.817,-449.437 939.177,-237.952 51.99,18.75 109.26,-8.254 127.96,-60.208 18.71,-51.96 -8.24,-109.246 -60.21,-127.957 -166.64,-60.011 -312.9,-83.839 -440.06,-83.839"
         style="fill:#523209;fill-opacity:1;fill-rule:nonzero;stroke:none"
         id="path42"
         inkscape:connector-curvature="0" /><path
         d="m 2024.24,1689 c -21.51,0 -43.44,0.82 -65.22,2.43 -369.35,27.43 -528.47,246.06 -564.26,370.93 -55.04,192.85 3.12,442.91 151.76,652.7 175.85,248.16 441.93,394.98 749.25,413.42 235.67,14.13 413.14,-52.21 525.46,-196.03 149.77,-191.77 127.47,-459.16 107.86,-537.71 -13.47,-53.75 -90.86,-224.91 -233.21,-383.89 C 2507.34,1800.29 2275.09,1689 2024.24,1689 Z m 332.04,1241.33 c -15.65,0 -31.99,-0.51 -48.55,-1.5 -331.32,-19.87 -516.89,-214.9 -598.01,-329.4 -110.97,-156.61 -160.27,-350.35 -122.67,-482.09 0.55,-1.91 61.67,-202.32 386.79,-226.46 16.86,-1.25 33.82,-1.88 50.4,-1.88 452.64,0 690.65,481.96 710.93,554.68 8.42,33.75 30.4,235.11 -71.56,365.68 -62.7,80.27 -166.1,120.97 -307.33,120.97"
         style="fill:#523209;fill-opacity:1;fill-rule:nonzero;stroke:none"
         id="path44"
         inkscape:connector-curvature="0" /><path
         d="m 838.625,1063.34 c -55.227,0 -100,44.77 -100,100 0,605.47 261.485,996.89 717.405,1073.91 54.54,9.14 106.06,-27.5 115.26,-81.94 9.2,-54.46 -27.49,-106.06 -81.94,-115.26 -479.18,-80.95 -550.725,-584.03 -550.725,-876.71 0,-55.23 -44.773,-100 -100,-100"
         style="fill:#523209;fill-opacity:1;fill-rule:nonzero;stroke:none"
         id="path46"
         inkscape:connector-curvature="0" /><path
         d="m 2411.35,1404.67 c -24.93,0 -49.89,9.26 -69.29,27.9 -199.03,191.29 -133.65,441.47 -130.77,452.02 l 192.95,-52.66 0.24,0.9 c -1.52,-6.01 -35.84,-148.4 76.18,-256.06 39.81,-38.27 41.07,-101.57 2.8,-141.4 -19.63,-20.42 -45.85,-30.7 -72.11,-30.7"
         style="fill:#523209;fill-opacity:1;fill-rule:nonzero;stroke:none"
         id="path48"
         inkscape:connector-curvature="0" /><path
         d="m 1480.27,4300.16 c -41.03,0 -251.89,9.16 -374.13,190.17 -121.648,180.14 -107.468,459.83 42.14,831.3 20.25,50.25 76.77,75.26 127.57,56.4 18.63,-6.92 454.75,-178.84 307.35,-995.58 -8.27,-45.83 -47.89,-79.92 -94.42,-82.16 0,0 -2.98,-0.13 -8.51,-0.13 z m -191.78,824.33 c -99.94,-298.45 -66.67,-448.07 -16.6,-522.22 34.91,-51.7 86.12,-77.25 129.2,-89.86 45.77,353.29 -40.19,529.23 -112.6,612.08"
         style="fill:#523209;fill-opacity:1;fill-rule:nonzero;stroke:none"
         id="path50"
         inkscape:connector-curvature="0" /><path
         d="m 1625.06,5043.96 c -33.77,0 -66.28,17.15 -84.97,47.23 -149.08,239.95 -186,441.47 -109.75,598.95 103.64,214.02 373.1,246.89 384.52,248.19 34.55,3.93 68.63,-10.38 90.03,-37.75 129.28,-165.29 173.6,-325.62 131.72,-476.54 -70.45,-253.91 -363.38,-368.7 -375.82,-373.47 -11.69,-4.46 -23.79,-6.61 -35.73,-6.61 z m 158.17,683.54 c -55.38,-16.17 -138.08,-51.79 -173.24,-125.27 -36.52,-76.35 -17.54,-188.21 54.69,-326.49 65.38,39.04 153.31,107.26 179.39,202.44 20.08,73.28 -0.39,156.96 -60.84,249.32"
         style="fill:#523209;fill-opacity:1;fill-rule:nonzero;stroke:none"
         id="path52"
         inkscape:connector-curvature="0" /><path
         d="m 1753.21,3138.46 h -0.11 c -362.05,0.06 -535.37,209.86 -617.01,385.86 -84.19,181.52 -86.47,361.64 -86.53,369.22 -0.2,28.87 12.07,56.42 33.67,75.57 21.61,19.15 50.43,28.02 79.07,24.35 713.75,-91.64 953.71,-652.81 963.57,-676.65 11.04,-26.67 10.01,-56.8 -2.81,-82.65 -12.81,-25.86 -36.17,-44.91 -64.08,-52.27 -109.18,-28.82 -212.05,-43.43 -305.77,-43.43 z m -488.2,633.17 c 10.18,-49.91 27.03,-109.54 54.9,-168.24 84.66,-178.25 226.37,-264.89 433.21,-264.93 h 0.08 c 39.65,0 81.76,3.33 126.01,9.93 -28.08,41.69 -66.41,91.61 -116.35,142.65 -136.81,139.83 -303.82,233.89 -497.85,280.59"
         style="fill:#523209;fill-opacity:1;fill-rule:nonzero;stroke:none"
         id="path54"
         inkscape:connector-curvature="0" /><path
         d="m 2374.8,2959.1 c -15.03,0 -30.28,3.4 -44.64,10.58 -216.88,108.43 -395.01,296.11 -529.46,557.82 -104.19,202.84 -182.6,450.92 -233.02,737.33 -84.89,482.19 -61.87,903.82 -60.84,921.54 3.18,55.13 50.3,97.37 105.59,94.07 55.13,-3.18 97.24,-50.44 94.08,-105.56 v 0 c -0.93,-16.24 -83.33,-1628.1 713.08,-2026.31 49.41,-24.7 69.43,-84.77 44.73,-134.17 -17.52,-35.04 -52.84,-55.3 -89.52,-55.3"
         style="fill:#523209;fill-opacity:1;fill-rule:nonzero;stroke:none"
         id="path56"
         inkscape:connector-curvature="0" /><path
         d="m 1747.14,3782.07 c -36.5,0 -71.68,20.06 -89.3,54.86 l -262.26,518.12 c -24.94,49.27 -5.22,109.44 44.05,134.38 49.3,24.96 109.44,5.23 134.39,-44.05 l 262.26,-518.13 c 24.94,-49.27 5.22,-109.44 -44.05,-134.38 -14.48,-7.33 -29.9,-10.8 -45.09,-10.8"
         style="fill:#523209;fill-opacity:1;fill-rule:nonzero;stroke:none"
         id="path58"
         inkscape:connector-curvature="0" /><path
         d="m 3144.66,916.262 c -15.16,0 -30.42,0.445 -45.79,1.343 -256.26,14.985 -497.89,153.965 -595.14,277.125 -211.97,268.3 -164.18,590.58 146.13,985.26 124.14,157.98 357.84,380.7 628.43,638.59 480.13,457.58 1137.69,1084.26 1196.74,1414.4 9.73,54.38 61.66,90.57 116.05,80.83 54.36,-9.73 90.55,-61.68 80.83,-116.05 -70.58,-394.56 -700.16,-994.57 -1255.63,-1523.95 -253.99,-242.07 -493.9,-470.71 -609.19,-617.42 -363.73,-462.63 -205.85,-662.46 -146.4,-737.7 50.55,-64.03 234.4,-188.83 449.86,-201.42 155.22,-9.09 289.97,42.46 400.63,153.17 170.27,170.2 1024.95,1081.34 1133.38,2311.52 4.85,55.03 53.58,95.63 108.39,90.83 55.02,-4.84 95.68,-53.36 90.83,-108.39 C 4729.28,2265.25 3831.43,1307.76 3652.6,1129.02 3512.93,989.285 3338.11,916.262 3144.66,916.262"
         style="fill:#523209;fill-opacity:1;fill-rule:nonzero;stroke:none"
         id="path60"
         inkscape:connector-curvature="0" /><path
         d="m 3915.41,778.086 c -37.47,0 -73.39,21.152 -90.48,57.285 -23.6,49.93 -2.25,109.539 47.68,133.145 l 108.59,51.324 c 49.94,23.6 109.54,2.27 133.15,-47.672 23.6,-49.93 2.25,-109.539 -47.68,-133.145 l -108.59,-51.328 c -13.81,-6.523 -28.35,-9.609 -42.67,-9.609"
         style="fill:#523209;fill-opacity:1;fill-rule:nonzero;stroke:none"
         id="path62"
         inkscape:connector-curvature="0" /><path
         d="m 3915.27,4689.12 c -17.76,0 -35.28,4.73 -50.72,13.81 l -388.28,228.44 c -31.75,18.69 -50.67,53.33 -49.21,90.15 0.5,12.57 13.07,309.89 86.65,500.22 68.04,175.81 298.67,318.81 514.11,318.81 102.8,0 197.96,-32.45 275.21,-93.84 244.08,-193.83 294.74,-484.07 132.17,-757.45 -148.68,-250.26 -492.53,-297.42 -507.1,-299.31 -4.27,-0.56 -8.56,-0.83 -12.83,-0.83 z m -284.72,383.52 303.39,-178.48 c 72.83,15.61 251.42,66.14 329.33,197.29 65.1,109.47 140.64,319.76 -84.64,498.66 -42.13,33.48 -92.86,50.44 -150.81,50.44 -142.86,0 -293.41,-102.65 -327.57,-190.96 -41.37,-106.99 -61.78,-275.75 -69.7,-376.95"
         style="fill:#523209;fill-opacity:1;fill-rule:nonzero;stroke:none"
         id="path64"
         inkscape:connector-curvature="0" /><path
         d="m 2706.11,2877.32 c -196.54,0 -377.75,70.15 -529.43,206.06 -240.82,215.78 -379.6,576.74 -371.24,965.55 11.51,536.43 384.53,1135.95 636.28,1313 513.74,360.87 922.83,256.14 1167.3,193.57 l 5.64,-1.46 c 53.5,-13.69 85.78,-68.16 72.09,-121.66 -13.69,-53.5 -68.12,-85.79 -121.67,-72.09 l -5.67,1.45 c -238.17,60.97 -564.35,144.48 -1002.68,-163.43 -188.46,-132.55 -540.99,-671.27 -551.33,-1153.68 -7.13,-331.27 106.8,-634.93 304.75,-812.3 135.45,-121.37 302.23,-172.99 482.44,-149.22 54.7,7.26 104.99,-31.31 112.21,-86.08 7.22,-54.74 -31.32,-104.99 -86.08,-112.21 -38.01,-5 -75.6,-7.5 -112.61,-7.5"
         style="fill:#523209;fill-opacity:1;fill-rule:nonzero;stroke:none"
         id="path66"
         inkscape:connector-curvature="0" /><path
         d="m 2076.07,4617.29 c -13.74,0 -27.7,2.85 -41.04,8.87 -140.76,63.45 -234.26,178.83 -263.28,324.88 -37.1,186.77 36.36,416.8 182.8,572.4 109.08,115.92 214.23,119.5 283.25,102.06 149.62,-37.77 258.85,-213.28 300.74,-370.48 14.22,-53.36 -17.52,-108.16 -70.89,-122.38 -53.31,-14.19 -108.16,17.52 -122.38,70.9 -29.19,109.58 -100.82,214.01 -156.41,228.04 -24.77,6.24 -54.56,-8.98 -88.65,-45.2 -102.61,-109.02 -157,-272 -132.29,-396.38 16.53,-83.24 66.77,-144.31 149.3,-181.51 50.35,-22.7 72.76,-81.91 50.07,-132.26 -16.68,-37.01 -53.1,-58.93 -91.22,-58.94"
         style="fill:#523209;fill-opacity:1;fill-rule:nonzero;stroke:none"
         id="path68"
         inkscape:connector-curvature="0" /><path
         d="m 3636.75,3806.46 c -238.39,0 -419.37,160.57 -492.99,319.69 -53.53,115.71 -48.16,228.72 14.36,302.31 66.77,78.55 161.29,120.04 273.38,120.04 165.05,0 362.05,-98.64 421.6,-211.11 62.93,-118.71 122.35,-286.23 47.94,-409.9 -33.23,-55.21 -106.04,-121.03 -264.29,-121.03 z M 3431.5,4348.5 c -53.07,0 -92.64,-16.21 -120.99,-49.54 -4.35,-5.12 -9.21,-37 14.76,-88.83 45.39,-98.09 162.21,-203.67 311.48,-203.67 57.8,0 85.9,12.47 92.92,24.14 15.77,26.22 2.53,107.85 -53.3,213.17 -16.5,30.23 -131.98,104.73 -244.87,104.73"
         style="fill:#523209;fill-opacity:1;fill-rule:nonzero;stroke:none"
         id="path70"
         inkscape:connector-curvature="0" /><path
         d="m 2412.47,3436.34 c -34.08,0 -84.76,10.05 -132.65,57.9 -95.13,95.27 -146.97,373.72 -68.77,576.72 58.09,150.8 177.22,238.27 335.47,246.32 3.71,0.18 7.29,0.27 10.82,0.27 67.45,0 127.33,-31.27 168.63,-88.05 67.17,-92.35 76.05,-236.86 24.35,-396.49 -30.02,-93 -143.21,-396.67 -337.85,-396.67 z m 144.87,681.21 c -78.87,-4 -129.14,-41 -158.87,-116.47 -54.53,-138.44 -11.02,-318.08 18.75,-360.44 31.06,21.41 95.19,106.44 142.8,253.9 46.88,144.76 10.21,218.1 -1.19,222.89 0,-0.01 0,-0.01 0,-0.01 0,0 -0.43,0.13 -1.49,0.13"
         style="fill:#523209;fill-opacity:1;fill-rule:nonzero;stroke:none"
         id="path72"
         inkscape:connector-curvature="0" /><path
         d="m 3008.86,3416.39 c -110.79,0 -197.58,76.04 -197.58,173.12 0,97.08 86.79,173.13 197.58,173.13 110.7,0 197.42,-76.05 197.42,-173.13 0,-97.08 -86.72,-173.12 -197.42,-173.12 z m -0.08,187.85 c -1.48,-4.1 -2.5,-9.04 -2.5,-14.73 0,-5.68 1.02,-10.62 2.5,-14.72 1.48,4.1 2.5,9.04 2.5,14.72 0,5.69 -1.02,10.62 -2.5,14.73"
         style="fill:#523209;fill-opacity:1;fill-rule:nonzero;stroke:none"
         id="path74"
         inkscape:connector-curvature="0" /><path
         d="m 3107.47,3197.54 c -34.24,0 -67.59,17.6 -86.24,49.24 -28.39,48.15 -79.69,194.52 -94.73,238.23 -17.98,52.22 9.77,109.12 62,127.1 52.21,17.98 109.11,-9.77 127.1,-62 27.82,-80.79 65.77,-181.15 77.92,-201.77 28.04,-47.58 12.21,-108.88 -35.36,-136.92 -15.94,-9.41 -33.43,-13.88 -50.69,-13.88"
         style="fill:#523209;fill-opacity:1;fill-rule:nonzero;stroke:none"
         id="path76"
         inkscape:connector-curvature="0" /><path
         d="m 2758.93,2754.88 c -8.16,0 -16.45,1.01 -24.72,3.11 -53.52,13.61 -85.88,68.04 -72.26,121.56 4.27,16.84 108.58,413.5 433.5,524.15 20.17,6.89 42.01,7.14 62.36,0.69 l 472.58,-149.29 c 52.66,-16.64 81.87,-72.81 65.23,-125.48 -16.64,-52.66 -72.8,-81.91 -125.48,-65.23 l -438.83,138.64 c -198.54,-90.24 -274.79,-369.85 -275.54,-372.78 -11.51,-45.25 -52.19,-75.37 -96.84,-75.37"
         style="fill:#523209;fill-opacity:1;fill-rule:nonzero;stroke:none"
         id="path78"
         inkscape:connector-curvature="0" /><path
         d="m 2856.43,2477.56 c -52.81,0 -96.95,41.37 -99.78,94.73 -2.91,55.14 39.44,102.21 94.59,105.13 395.75,20.91 589.31,512.23 591.15,517.18 19.26,51.77 76.82,78.1 128.59,58.88 51.77,-19.25 78.12,-76.82 58.88,-128.59 -32.75,-88.05 -111.73,-236.28 -226.55,-364.21 -156.76,-174.7 -344.02,-272.54 -541.52,-282.98 -1.8,-0.09 -3.59,-0.14 -5.36,-0.14"
         style="fill:#523209;fill-opacity:1;fill-rule:nonzero;stroke:none"
         id="path80"
         inkscape:connector-curvature="0" /><path
         d="m 5026.47,2245.99 c -49.99,0 -93.18,37.41 -99.18,88.28 -70.07,593.17 -172.61,916.48 -254.99,1176.27 -38.72,122.08 -75.28,237.38 -103.01,362.03 -50.59,227.79 -115.01,351.81 -212.5,539.51 -59,113.6 -132.43,254.97 -220.25,453.73 -22.33,50.52 0.52,109.57 51.04,131.89 50.55,22.32 109.57,-0.54 131.88,-51.05 85.29,-193 154.11,-325.49 214.82,-442.38 100.99,-194.47 173.97,-334.97 230.24,-588.31 25.8,-116 59.46,-222.1 98.41,-344.96 84.95,-267.86 190.68,-601.21 262.97,-1213.28 6.48,-54.84 -32.72,-104.56 -87.58,-111.03 -3.98,-0.47 -7.94,-0.7 -11.85,-0.7"
         style="fill:#523209;fill-opacity:1;fill-rule:nonzero;stroke:none"
         id="path82"
         inkscape:connector-curvature="0" /><path
         d="m 4593.07,440.684 c -149.28,0 -268.77,26.414 -365.3,80.75 -236.82,133.007 -416.13,528.056 -301.48,857.576 49.52,142.36 201.99,398.89 419.72,625.73 179.82,187.34 458.59,410.67 765.45,410.67 l 7.79,-0.05 c 152.22,-1.84 314.53,-70.61 434.13,-183.95 100.12,-94.87 219.46,-265.18 219.46,-537.76 0,-165.63 -20.51,-484.11 -157.93,-756.177 -150.33,-297.602 -402.76,-462.766 -730.03,-477.618 -22.28,-1.015 -50.06,-3.632 -82.23,-6.671 -59.06,-5.567 -132.58,-12.5 -209.58,-12.5 z m 518.39,1774.726 c -184.44,0 -405.04,-124 -621.16,-349.17 -188.18,-196.06 -331.15,-426.57 -375.12,-552.95 -78.25,-224.91 50.41,-527.548 210.61,-617.528 65.88,-37.078 153.27,-55.078 267.28,-55.078 67.59,0 133.06,6.171 190.81,11.621 33.31,3.136 64.78,6.105 91.92,7.332 258.06,11.718 441.43,132.101 560.59,368.003 118.73,235.07 136.45,518.17 136.45,666.01 0,356.04 -266.68,519.42 -456.05,521.73 l -5.33,0.03"
         style="fill:#523209;fill-opacity:1;fill-rule:nonzero;stroke:none"
         id="path84"
         inkscape:connector-curvature="0" /><path
         d="m 3328.94,232.559 c -46.19,-0.008 -95.4,2.648 -147.98,8.312 -33.62,3.621 -63.14,23.984 -78.45,54.141 -9.02,17.773 -218.72,438.933 -13.08,757.828 29.92,46.41 91.8,59.8 138.23,29.86 46.41,-29.94 59.79,-91.821 29.85,-138.235 -109.31,-169.531 -37.21,-407.902 2.33,-509.711 255.93,-16.25 426.76,53.398 508.1,207.629 51.99,98.574 69.51,235.808 49.34,386.417 -18.26,136.32 -58.51,225.41 -74.01,248.01 -38.78,27.48 -53.49,79.61 -32.54,124.12 23.51,49.97 83.1,71.43 133.05,47.89 87.23,-41.05 134.81,-205.93 155.42,-300.56 20.97,-96.23 48.34,-285.42 -3.79,-471.151 -48.5,-172.863 -199.28,-444.531 -666.47,-444.55"
         style="fill:#523209;fill-opacity:1;fill-rule:nonzero;stroke:none"
         id="path86"
         inkscape:connector-curvature="0" /><path
         d="m 2600.34,331.699 c -42.21,0 -79.89,26.516 -94.14,66.258 -36.51,101.887 -92.07,287.59 -53.94,386.625 19.84,51.539 77.74,77.227 129.25,57.391 50.88,-19.59 76.58,-76.258 58.12,-127.297 -4.94,-25.196 9.37,-101.199 32.39,-179.883 226.38,19.672 364.5,126.352 366.01,127.539 43,34.66 105.73,27.734 140.39,-15.273 34.66,-42.985 27.69,-106.121 -15.31,-140.789 -8.84,-7.129 -220.47,-174.571 -562.77,-174.571"
         style="fill:#523209;fill-opacity:1;fill-rule:nonzero;stroke:none"
         id="path88"
         inkscape:connector-curvature="0" /><path
         d="m 1880.93,362.246 c -40.82,0 -77.87,24.93 -93.01,63.352 -8.54,21.695 -206.68,535.39 21.01,881.482 121,183.94 332.9,281.99 629.79,291.45 55.1,1.56 101.38,-41.57 103.14,-96.77 1.76,-55.21 -41.57,-101.38 -96.77,-103.14 -228.09,-7.25 -385.91,-75.04 -469.07,-201.46 -120.49,-183.15 -72.39,-470.578 -25.93,-627.578 604.06,77.813 682.46,527.888 685.61,547.778 7.96,54.64 58.63,92.14 113.35,84.21 54.65,-7.98 92.43,-59.03 84.47,-113.68 -1.03,-7.03 -26.62,-174.035 -158.3,-345.87 -119.58,-156.032 -353.2,-348.543 -787.13,-379.52 -2.39,-0.176 -4.79,-0.254 -7.16,-0.254"
         style="fill:#523209;fill-opacity:1;fill-rule:nonzero;stroke:none"
         id="path90"
         inkscape:connector-curvature="0" /><path
         d="m 1414,546.434 c -231.38,-0.008 -399.59,78.859 -512.738,162.187 -191.035,140.688 -267.735,323.509 -270.91,331.219 -15.602,37.97 -6.422,81.62 23.148,110.08 359.18,345.68 709.9,407.38 940.44,398.3 253.35,-9.97 421.45,-105.18 428.48,-109.22 47.87,-27.57 64.33,-88.7 36.78,-136.57 -27.49,-47.73 -88.39,-64.23 -136.2,-36.98 -3.35,1.87 -141.18,77.38 -346.59,83.26 -255.24,7.15 -500.27,-91 -729.277,-292.32 85.172,-138.003 351.817,-449.437 939.177,-237.952 51.99,18.75 109.26,-8.254 127.96,-60.208 18.71,-51.96 -8.24,-109.246 -60.21,-127.957 -166.64,-60.011 -312.9,-83.839 -440.06,-83.839"
         style="fill:#523209;fill-opacity:1;fill-rule:nonzero;stroke:none"
         id="path92"
         inkscape:connector-curvature="0" /><path
         d="m 2024.24,1689 c -21.51,0 -43.44,0.82 -65.22,2.43 -369.35,27.43 -528.47,246.06 -564.26,370.93 -55.04,192.85 3.12,442.91 151.76,652.7 175.85,248.16 441.93,394.98 749.25,413.42 235.67,14.13 413.14,-52.21 525.46,-196.03 149.77,-191.77 127.47,-459.16 107.86,-537.71 -13.47,-53.75 -90.86,-224.91 -233.21,-383.89 C 2507.34,1800.29 2275.09,1689 2024.24,1689 Z m 332.04,1241.33 c -15.65,0 -31.99,-0.51 -48.55,-1.5 -331.32,-19.87 -516.89,-214.9 -598.01,-329.4 -110.97,-156.61 -160.27,-350.35 -122.67,-482.09 0.55,-1.91 61.67,-202.32 386.79,-226.46 16.86,-1.25 33.82,-1.88 50.4,-1.88 452.64,0 690.65,481.96 710.93,554.68 8.42,33.75 30.4,235.11 -71.56,365.68 -62.7,80.27 -166.1,120.97 -307.33,120.97"
         style="fill:#523209;fill-opacity:1;fill-rule:nonzero;stroke:none"
         id="path94"
         inkscape:connector-curvature="0" /><path
         d="m 838.625,1063.34 c -55.227,0 -100,44.77 -100,100 0,605.47 261.485,996.89 717.405,1073.91 54.54,9.14 106.06,-27.5 115.26,-81.94 9.2,-54.46 -27.49,-106.06 -81.94,-115.26 -479.18,-80.95 -550.725,-584.03 -550.725,-876.71 0,-55.23 -44.773,-100 -100,-100"
         style="fill:#523209;fill-opacity:1;fill-rule:nonzero;stroke:none"
         id="path96"
         inkscape:connector-curvature="0" /><path
         d="m 2411.35,1404.67 c -24.93,0 -49.89,9.26 -69.29,27.9 -199.03,191.29 -133.65,441.47 -130.77,452.02 l 192.95,-52.66 0.24,0.9 c -1.52,-6.01 -35.84,-148.4 76.18,-256.06 39.81,-38.27 41.07,-101.57 2.8,-141.4 -19.63,-20.42 -45.85,-30.7 -72.11,-30.7"
         style="fill:#523209;fill-opacity:1;fill-rule:nonzero;stroke:none"
         id="path98"
         inkscape:connector-curvature="0" /><path
         d="m 1480.27,4300.16 c -41.03,0 -251.89,9.16 -374.13,190.17 -121.648,180.14 -107.468,459.83 42.14,831.3 20.25,50.25 76.77,75.26 127.57,56.4 18.63,-6.92 454.75,-178.84 307.35,-995.58 -8.27,-45.83 -47.89,-79.92 -94.42,-82.16 0,0 -2.98,-0.13 -8.51,-0.13 z m -191.78,824.33 c -99.94,-298.45 -66.67,-448.07 -16.6,-522.22 34.91,-51.7 86.12,-77.25 129.2,-89.86 45.77,353.29 -40.19,529.23 -112.6,612.08"
         style="fill:#523209;fill-opacity:1;fill-rule:nonzero;stroke:none"
         id="path100"
         inkscape:connector-curvature="0" /><path
         d="m 1625.06,5043.96 c -33.77,0 -66.28,17.15 -84.97,47.23 -149.08,239.95 -186,441.47 -109.75,598.95 103.64,214.02 373.1,246.89 384.52,248.19 34.55,3.93 68.63,-10.38 90.03,-37.75 129.28,-165.29 173.6,-325.62 131.72,-476.54 -70.45,-253.91 -363.38,-368.7 -375.82,-373.47 -11.69,-4.46 -23.79,-6.61 -35.73,-6.61 z m 158.17,683.54 c -55.38,-16.17 -138.08,-51.79 -173.24,-125.27 -36.52,-76.35 -17.54,-188.21 54.69,-326.49 65.38,39.04 153.31,107.26 179.39,202.44 20.08,73.28 -0.39,156.96 -60.84,249.32"
         style="fill:#523209;fill-opacity:1;fill-rule:nonzero;stroke:none"
         id="path102"
         inkscape:connector-curvature="0" /><path
         d="m 1753.21,3138.46 h -0.11 c -362.05,0.06 -535.37,209.86 -617.01,385.86 -84.19,181.52 -86.47,361.64 -86.53,369.22 -0.2,28.87 12.07,56.42 33.67,75.57 21.61,19.15 50.43,28.02 79.07,24.35 713.75,-91.64 953.71,-652.81 963.57,-676.65 11.04,-26.67 10.01,-56.8 -2.81,-82.65 -12.81,-25.86 -36.17,-44.91 -64.08,-52.27 -109.18,-28.82 -212.05,-43.43 -305.77,-43.43 z m -488.2,633.17 c 10.18,-49.91 27.03,-109.54 54.9,-168.24 84.66,-178.25 226.37,-264.89 433.21,-264.93 h 0.08 c 39.65,0 81.76,3.33 126.01,9.93 -28.08,41.69 -66.41,91.61 -116.35,142.65 -136.81,139.83 -303.82,233.89 -497.85,280.59"
         style="fill:#523209;fill-opacity:1;fill-rule:nonzero;stroke:none"
         id="path104"
         inkscape:connector-curvature="0" /><path
         d="m 2374.8,2959.1 c -15.03,0 -30.28,3.4 -44.64,10.58 -216.88,108.43 -395.01,296.11 -529.46,557.82 -104.19,202.84 -182.6,450.92 -233.02,737.33 -84.89,482.19 -61.87,903.82 -60.84,921.54 3.18,55.13 50.3,97.37 105.59,94.07 55.13,-3.18 97.24,-50.44 94.08,-105.56 v 0 c -0.93,-16.24 -83.33,-1628.1 713.08,-2026.31 49.41,-24.7 69.43,-84.77 44.73,-134.17 -17.52,-35.04 -52.84,-55.3 -89.52,-55.3"
         style="fill:#523209;fill-opacity:1;fill-rule:nonzero;stroke:none"
         id="path106"
         inkscape:connector-curvature="0" /><path
         d="m 1747.14,3782.07 c -36.5,0 -71.68,20.06 -89.3,54.86 l -262.26,518.12 c -24.94,49.27 -5.22,109.44 44.05,134.38 49.3,24.96 109.44,5.23 134.39,-44.05 l 262.26,-518.13 c 24.94,-49.27 5.22,-109.44 -44.05,-134.38 -14.48,-7.33 -29.9,-10.8 -45.09,-10.8"
         style="fill:#523209;fill-opacity:1;fill-rule:nonzero;stroke:none"
         id="path108"
         inkscape:connector-curvature="0" /><path
         d="m 3144.66,916.262 c -15.16,0 -30.42,0.445 -45.79,1.343 -256.26,14.985 -497.89,153.965 -595.14,277.125 -211.97,268.3 -164.18,590.58 146.13,985.26 124.14,157.98 357.84,380.7 628.43,638.59 480.13,457.58 1137.69,1084.26 1196.74,1414.4 9.73,54.38 61.66,90.57 116.05,80.83 54.36,-9.73 90.55,-61.68 80.83,-116.05 -70.58,-394.56 -700.16,-994.57 -1255.63,-1523.95 -253.99,-242.07 -493.9,-470.71 -609.19,-617.42 -363.73,-462.63 -205.85,-662.46 -146.4,-737.7 50.55,-64.03 234.4,-188.83 449.86,-201.42 155.22,-9.09 289.97,42.46 400.63,153.17 170.27,170.2 1024.95,1081.34 1133.38,2311.52 4.85,55.03 53.58,95.63 108.39,90.83 55.02,-4.84 95.68,-53.36 90.83,-108.39 C 4729.28,2265.25 3831.43,1307.76 3652.6,1129.02 3512.93,989.285 3338.11,916.262 3144.66,916.262"
         style="fill:#523209;fill-opacity:1;fill-rule:nonzero;stroke:none"
         id="path110"
         inkscape:connector-curvature="0" /><path
         d="m 3915.41,778.086 c -37.47,0 -73.39,21.152 -90.48,57.285 -23.6,49.93 -2.25,109.539 47.68,133.145 l 108.59,51.324 c 49.94,23.6 109.54,2.27 133.15,-47.672 23.6,-49.93 2.25,-109.539 -47.68,-133.145 l -108.59,-51.328 c -13.81,-6.523 -28.35,-9.609 -42.67,-9.609"
         style="fill:#523209;fill-opacity:1;fill-rule:nonzero;stroke:none"
         id="path112"
         inkscape:connector-curvature="0" /><path
         d="m 5673,1693.34 c 0,-414.45 -128.75,-1103.125 -792.97,-1133.281 -133.59,-6.875 -408.67,-61.563 -603.75,48.671 -102.42,57.579 -194.06,179.532 -243.83,323.829 -46.87,131.641 -58.51,280.001 -11.72,413.591 91.72,263.36 546.18,895.39 1010.47,962.66 29.3,4.92 57.58,6.87 86.8,6.87 237.97,-2.97 555,-207.81 555,-622.34"
         style="fill:#412e1b;fill-opacity:1;fill-rule:nonzero;stroke:none"
         id="path114"
         inkscape:connector-curvature="0" /><path
         d="m 5026.28,2345.84 4.92,-37.03 c -464.29,-67.27 -918.75,-699.3 -1010.47,-962.66 -46.79,-133.59 -35.15,-281.95 11.72,-413.591 l -8.75,-2.891 -99.53,-46.797 c 7.81,232.109 -77.03,454.529 -122.89,475.939 l -68.2,2.97 c 380.39,432.03 925.55,1244.53 1011.4,2211.09 l 11.72,3.91 c 86.8,-276.02 196.02,-600.86 270.08,-1230.94"
         style="fill:#fffee8;fill-opacity:1;fill-rule:nonzero;stroke:none"
         id="path116"
         inkscape:connector-curvature="0" /><path
         d="m 4756.2,3576.78 -11.72,-3.91 c -85.85,-966.56 -631.01,-1779.06 -1011.4,-2211.09 -54.69,-62.5 -105.39,-116.1 -151.33,-161.88 -125.78,-125.94 -270.08,-176.56 -409.53,-182.5 -157.97,-6.79 -310.24,43.91 -424.3,108.36 -75.08,41.88 -133.59,90.63 -165.86,130.63 -50.62,64.37 -94.61,143.36 -105.31,247.73 -14.69,148.28 40.94,346.33 251.64,614.53 355.08,450.63 1723.52,1533.28 1841.49,2082.35 38.12,-88.75 69.21,-183.36 96.56,-306.25 24.45,-108.29 55.62,-209.61 89.76,-317.97"
         style="fill:#412e1b;fill-opacity:1;fill-rule:nonzero;stroke:none"
         id="path118"
         inkscape:connector-curvature="0" /><path
         d="m 4227.53,4906.23 c 157.03,-355 264.3,-517.89 342.35,-705.23 C 4451.91,3651.93 3083.47,2569.28 2728.39,2118.65 2517.69,1850.45 2462.06,1652.4 2476.75,1504.12 l -35.08,-5.78 c -10.78,0 -20.54,-1.02 -30.31,-1.02 v 7.82 c -134.53,129.68 -115,293.51 -106.33,340.39 343.36,143.43 512.11,516.95 526.72,573.43 4.92,20.55 13.75,81.96 9.84,158.05 l 14.61,1.02 c 402.74,20.47 631.02,450.62 679.77,581.33 l 5.86,18.51 -414.53,131.64 c -6.8,-2.89 -14.61,-4.84 -21.49,-8.75 -156.09,-62.42 -249.61,-209.69 -299.37,-317.97 l -1.02,0.94 c -75.08,-9.77 -146.33,-8.75 -213.59,2.97 -38.05,17.58 -82.89,30.23 -133.6,37.11 -28.28,10.7 -55.62,23.44 -81.95,37.97 -300.47,167.81 -479.84,560.86 -471.17,985.15 4.92,224.3 78.05,460.32 176.56,667.19 107.35,223.36 244.85,413.59 358.99,517.89 20.47,18.52 40,35.16 58.51,47.81 479.92,337.43 845.63,239.93 1090.39,177.43 l 6.88,-1.88 c -58.52,-177.5 -69.22,-437.97 -69.22,-437.97 l 388.12,-228.2 c 0,0 170.79,22.42 310.16,120.94 z m -591.09,-999.77 c 305.31,0 183.36,280.94 128.75,384.3 -55.55,103.44 -376.49,254.61 -530.55,73.2 -103.44,-121.87 97.58,-457.5 401.8,-457.5 z m -615.47,-389.14 c 48.83,4.93 84.84,35.08 84.84,72.19 0,39.92 -42.89,73.13 -97.5,73.13 -53.67,0 -97.5,-33.21 -97.5,-73.13 0,-40.08 43.83,-73.12 97.5,-73.12 4.92,0 8.83,0 12.66,0.93 z m -365.78,346.18 c 67.34,207.81 6.87,360 -103.36,354.14 -359.92,-18.52 -305.31,-549.14 -200.86,-652.58 103.36,-103.36 236.95,91.72 304.22,298.44"
         style="fill:#fffee8;fill-opacity:1;fill-rule:nonzero;stroke:none"
         id="path120"
         inkscape:connector-curvature="0" /><path
         d="m 4241.13,5668.03 c 222.42,-176.57 234.14,-416.49 108.35,-628.13 -32.26,-53.75 -76.09,-96.56 -123.98,-129.76 -139.37,-98.52 -310.16,-120.94 -310.16,-120.94 l -388.12,228.2 c 0,0 10.7,260.47 69.22,437.97 2.97,9.69 6.87,20.47 10.78,30.24 68.2,177.57 410.62,359.92 633.91,182.42"
         style="fill:#412e1b;fill-opacity:1;fill-rule:nonzero;stroke:none"
         id="path122"
         inkscape:connector-curvature="0" /><path
         d="m 3801.28,1358.81 c 45.86,-21.41 130.7,-243.83 122.89,-475.939 v -0.937 c -7.81,-293.672 -163.83,-602.891 -732.5,-541.407 0,0 -53.67,105.313 -78.98,245.782 -23.36,126.875 -23.36,281.875 60.47,412.578 l -0.94,18.513 c 139.45,5.94 283.75,56.56 409.53,182.5 45.94,45.78 96.64,99.38 151.33,161.88 l 68.2,-2.97"
         style="fill:#1e9546;fill-opacity:1;fill-rule:nonzero;stroke:none"
         id="path124"
         inkscape:connector-curvature="0" /><path
         d="m 3765.19,4290.76 c 54.61,-103.36 176.56,-384.3 -128.75,-384.3 -304.22,0 -505.24,335.63 -401.8,457.5 154.06,181.41 475,30.24 530.55,-73.2"
         style="fill:#412e1b;fill-opacity:1;fill-rule:nonzero;stroke:none"
         id="path126"
         inkscape:connector-curvature="0" /><path
         d="m 3541.83,3177.87 -5.86,-18.51 C 3487.22,3028.65 3258.94,2598.5 2856.2,2578.03 l -14.61,-1.02 c -7.81,138.6 -58.59,325.78 -249.76,409.69 67.26,-11.72 138.51,-12.74 213.59,-2.97 l 1.02,-0.94 c 49.76,108.28 143.28,255.55 299.37,317.97 6.88,3.91 14.69,5.86 21.49,8.75 l 414.53,-131.64"
         style="fill:#1e9546;fill-opacity:1;fill-rule:nonzero;stroke:none"
         id="path128"
         inkscape:connector-curvature="0" /><path
         d="m 3172.22,1017.4 0.94,-18.513 c -83.83,-130.703 -83.83,-285.703 -60.47,-412.578 l -12.74,-1.954 c 0,0 -189.14,-152.187 -499.29,-152.187 0,0 -81.96,227.266 -55.71,311.172 161.96,172.656 189.3,358.98 189.3,358.98 l 13.67,23.44 c 114.06,-64.45 266.33,-115.15 424.3,-108.36"
         style="fill:#1e9546;fill-opacity:1;fill-rule:nonzero;stroke:none"
         id="path130"
         inkscape:connector-curvature="0" /><path
         d="m 3105.81,3589.51 c 0,-37.11 -36.01,-67.26 -84.84,-72.19 -3.83,-0.93 -7.74,-0.93 -12.66,-0.93 -53.67,0 -97.5,33.04 -97.5,73.12 0,39.92 43.83,73.13 97.5,73.13 54.61,0 97.5,-33.21 97.5,-73.13"
         style="fill:#412e1b;fill-opacity:1;fill-rule:nonzero;stroke:none"
         id="path132"
         inkscape:connector-curvature="0" /><path
         d="m 2841.59,2577.01 c 3.91,-76.09 -4.92,-137.5 -9.84,-158.05 -14.61,-56.48 -183.36,-430 -526.72,-573.43 -98.44,-41.96 -210.62,-64.38 -338.36,-54.69 -329.69,24.45 -451.64,213.75 -476.01,299.53 -4.85,15.55 -7.82,32.19 -10.71,49.69 -49.84,325.78 241.88,853.44 822.11,888.59 57.66,3.91 110.32,1.96 156.17,-4.84 42.9,-16.64 86.72,-29.3 133.6,-37.11 191.17,-83.91 241.95,-271.09 249.76,-409.69"
         style="fill:#412e1b;fill-opacity:1;fill-rule:nonzero;stroke:none"
         id="path134"
         inkscape:connector-curvature="0" /><path
         d="m 2747.92,1125.76 -13.67,-23.44 c 0,0 -27.34,-186.324 -189.3,-358.98 -124.76,-132.656 -329.61,-257.422 -664.14,-280.86 0,0 -43.9,111.172 -66.33,260.391 -31.25,197.031 -26.32,461.409 161.96,625.239 93.51,80.93 232.11,137.5 434.92,149.21 9.77,0 19.53,1.02 30.31,1.02 l 35.08,5.78 c 10.7,-104.37 54.69,-183.36 105.31,-247.73 32.27,-40 90.78,-88.75 165.86,-130.63"
         style="fill:#1e9546;fill-opacity:1;fill-rule:nonzero;stroke:none"
         id="path136"
         inkscape:connector-curvature="0" /><path
         d="m 2551.83,4217.64 c 110.23,5.86 170.7,-146.33 103.36,-354.14 -67.27,-206.72 -200.86,-401.8 -304.22,-298.44 -104.45,103.44 -159.06,634.06 200.86,652.58"
         style="fill:#412e1b;fill-opacity:1;fill-rule:nonzero;stroke:none"
         id="path138"
         inkscape:connector-curvature="0" /><path
         d="m 2411.36,1505.14 v -7.82 c -202.81,-11.71 -341.41,-68.28 -434.92,-149.21 l -3.91,3.9 c 0,0 -532.65,307.27 -1133.436,-170.7 3.906,455.47 169.766,878.83 633.986,957.81 l 6.87,0.94 c 2.89,-17.5 5.86,-34.14 10.71,-49.69 24.37,-85.78 146.32,-275.08 476.01,-299.53 127.74,-9.69 239.92,12.73 338.36,54.69 -8.67,-46.88 -28.2,-210.71 106.33,-340.39"
         style="fill:#412e1b;fill-opacity:1;fill-rule:nonzero;stroke:none"
         id="path140"
         inkscape:connector-curvature="0" /><path
         d="m 2440.66,5232.01 c -114.14,-104.3 -251.64,-294.53 -358.99,-517.89 l -5.86,2.97 c -258.36,116.95 -255.54,407.66 -133.59,621.25 23.44,42.89 52.66,82.89 84.84,117.03 194.07,205.78 363.83,-40 413.6,-223.36"
         style="fill:#412e1b;fill-opacity:1;fill-rule:nonzero;stroke:none"
         id="path142"
         inkscape:connector-curvature="0" /><path
         d="m 1972.53,1352.01 3.91,-3.9 C 1788.16,1184.28 1783.23,919.902 1814.48,722.871 990.266,428.262 723,1077.87 723,1077.87 c 39.063,38.13 78.047,72.19 116.094,103.44 600.786,477.97 1133.436,170.7 1133.436,170.7"
         style="fill:#1e9546;fill-opacity:1;fill-rule:nonzero;stroke:none"
         id="path144"
         inkscape:connector-curvature="0" /><path
         d="m 1826.13,5838.73 c 160.93,-205.86 144.45,-363.83 75.07,-476.95 -92.57,-147.35 -275.93,-217.58 -275.93,-217.58 -6.88,10.7 -13.68,21.48 -18.6,32.26 -351.01,596.88 219.46,662.27 219.46,662.27"
         style="fill:#1e9546;fill-opacity:1;fill-rule:nonzero;stroke:none"
         id="path146"
         inkscape:connector-curvature="0" /><path
         d="M 1149.25,3894.75 C 1814.48,3808.96 2033,3278.34 2033,3278.34 1155.11,3047.25 1149.25,3894.75 1149.25,3894.75"
         style="fill:#1e9546;fill-opacity:1;fill-rule:nonzero;stroke:none"
         id="path148"
         inkscape:connector-curvature="0" /><path
         d="m 1240.97,5283.73 c 0,0 378.44,-139.53 243.83,-883.67 0,0 -609.612,-24.38 -243.83,883.67"
         style="fill:#1e9546;fill-opacity:1;fill-rule:nonzero;stroke:none"
         id="path150"
         inkscape:connector-curvature="0" /><path
         d="m 3915.27,4751.62 c -6.66,0 -13.23,1.78 -19.02,5.18 l -388.28,228.43 c -11.92,7.02 -19,20 -18.45,33.81 0.47,12.15 12.61,299.41 82.48,480.17 52.13,134.67 247.72,278.84 455.82,278.84 88.53,0 170.25,-27.76 236.32,-80.28 221.03,-175.51 264.9,-428.43 117.34,-676.57 -133.32,-224.42 -448.07,-267.55 -461.4,-269.27 -1.6,-0.2 -3.21,-0.31 -4.81,-0.31 z m -349.62,286.7 357,-210.04 c 56.5,9.99 293.36,61.23 394.37,231.24 128.47,216.06 92.19,427.29 -99.53,579.53 -53.44,42.47 -117.24,64 -189.67,64 -169.7,0 -343.68,-121.91 -385.87,-230.9 -54.71,-141.55 -72.04,-363.36 -76.3,-433.83"
         style="fill:#523209;fill-opacity:1;fill-rule:nonzero;stroke:none"
         id="path152"
         inkscape:connector-curvature="0" /><path
         d="m 2706.69,2939.86 c -181.26,0 -348.4,64.71 -488.3,190.06 -227.42,203.78 -358.44,546.84 -350.46,917.67 5,233.11 84.1,505.35 222.73,766.54 117.28,220.96 265.57,411.27 387.02,496.68 490.16,344.32 866.69,247.92 1115.83,184.13 l 5.66,-1.44 c 20.07,-5.14 32.17,-25.56 27.03,-45.63 -5.13,-20.06 -25.58,-32.17 -45.62,-27.03 l -5.67,1.45 c -249.93,64.01 -592.22,151.62 -1054.11,-172.84 -223.14,-156.93 -567.45,-716.99 -577.89,-1203.47 -7.51,-349.26 114.18,-670.82 325.53,-860.2 149.46,-133.9 333.47,-190.8 532.31,-164.64 20.47,2.77 39.38,-11.75 42.09,-32.27 2.7,-20.54 -11.75,-39.38 -32.28,-42.08 -35.06,-4.62 -69.73,-6.93 -103.87,-6.93"
         style="fill:#523209;fill-opacity:1;fill-rule:nonzero;stroke:none"
         id="path154"
         inkscape:connector-curvature="0" /><path
         d="m 2076.11,4679.82 c -5.16,0 -10.4,1.06 -15.4,3.32 -123.6,55.72 -202.33,152.56 -227.66,280.07 -33.35,167.9 33.77,375.83 167.02,517.4 88.24,93.8 169.71,97.62 222.44,84.29 124.33,-31.38 219.66,-190.97 255.64,-325.96 5.33,-20.02 -6.58,-40.57 -26.59,-45.9 -19.97,-5.33 -40.55,6.57 -45.9,26.58 -31.46,118.11 -110.78,249.66 -201.51,272.56 -48.36,12.21 -98.67,-8.98 -149.46,-62.97 -117.42,-124.76 -176.92,-306.15 -148.08,-451.39 20.41,-102.72 84.36,-180.97 184.93,-226.31 18.87,-8.51 27.28,-30.72 18.77,-49.6 -6.26,-13.87 -19.91,-22.09 -34.2,-22.09"
         style="fill:#523209;fill-opacity:1;fill-rule:nonzero;stroke:none"
         id="path156"
         inkscape:connector-curvature="0" /><path
         d="m 3636.75,3868.96 c -209.65,0 -373.12,146.93 -436.27,283.43 -43.02,93.01 -41.05,181.09 5.26,235.62 54.52,64.11 132.58,97.99 225.76,97.99 155.79,0 321.91,-93.89 366.36,-177.85 45.34,-85.54 112.11,-244.58 49.62,-348.44 -36.23,-60.22 -107.13,-90.75 -210.73,-90.75 z M 3431.5,4411 c -71.51,0 -128.23,-24.07 -168.61,-71.56 -26.47,-31.17 -24.3,-90.78 5.66,-155.55 53.47,-115.56 191.48,-239.93 368.2,-239.93 75.47,0 124.75,18.32 146.48,54.42 31.27,51.98 11.97,154.67 -51.64,274.66 C 3702.17,4328.61 3563.2,4411 3431.5,4411"
         style="fill:#523209;fill-opacity:1;fill-rule:nonzero;stroke:none"
         id="path158"
         inkscape:connector-curvature="0" /><path
         d="m 2412.47,3498.84 c -32.41,0 -62.17,13.33 -88.47,39.62 -81.59,81.7 -122.79,333.08 -54.62,510.04 49.37,128.19 146.31,199.55 280.31,206.36 2.6,0.12 5.14,0.19 7.65,0.19 46.92,0 88.86,-22.13 118.08,-62.32 54.46,-74.87 60.23,-202.16 15.44,-340.48 -52.63,-163.01 -157.14,-353.41 -278.39,-353.41 z m 144.87,681.21 c -1.29,0 -2.58,-0.04 -3.89,-0.1 -103.57,-5.26 -175.63,-58.56 -214.08,-158.41 -63.01,-163.56 -12.56,-379.76 37.66,-430.07 11.87,-11.85 23.47,-17.63 35.44,-17.63 61.5,0 152.44,132.43 207.03,301.49 44.08,136.12 26.45,230.41 -4.73,273.29 -15.17,20.85 -34.5,31.43 -57.43,31.43"
         style="fill:#523209;fill-opacity:1;fill-rule:nonzero;stroke:none"
         id="path160"
         inkscape:connector-curvature="0" /><path
         d="m 3008.86,3478.89 c -75.74,0 -135.08,48.59 -135.08,110.62 0,62.03 59.34,110.63 135.08,110.63 75.66,0 134.92,-48.6 134.92,-110.63 0,-62.03 -59.26,-110.62 -134.92,-110.62 z m 0,146.25 c -34.38,0 -60.08,-18.81 -60.08,-35.63 0,-16.81 25.7,-35.62 60.08,-35.62 34.3,0 59.92,18.81 59.92,35.62 0,16.82 -25.62,35.63 -59.92,35.63"
         style="fill:#523209;fill-opacity:1;fill-rule:nonzero;stroke:none"
         id="path162"
         inkscape:connector-curvature="0" /><path
         d="m 3107.41,3260.05 c -12.84,0 -25.35,6.6 -32.34,18.47 -26.62,45.15 -83.12,208.37 -89.48,226.83 -6.74,19.58 3.67,40.93 23.25,47.67 19.63,6.72 40.93,-3.68 47.67,-23.25 23.97,-69.64 65.9,-183.87 83.17,-213.17 10.52,-17.84 4.58,-40.83 -13.26,-51.35 -5.98,-3.52 -12.54,-5.2 -19.01,-5.2"
         style="fill:#523209;fill-opacity:1;fill-rule:nonzero;stroke:none"
         id="path164"
         inkscape:connector-curvature="0" /><path
         d="m 2758.89,2817.39 c -3.07,0 -6.17,0.38 -9.28,1.16 -20.07,5.11 -32.2,25.52 -27.1,45.6 3.95,15.49 99.87,380.53 393.09,480.39 7.56,2.59 15.76,2.67 23.38,0.26 l 472.58,-149.29 c 19.75,-6.24 30.7,-27.32 24.47,-47.06 -6.24,-19.75 -27.28,-30.68 -47.06,-24.47 l -460.53,145.5 c -246.45,-92.85 -332.39,-420.48 -333.23,-423.83 -4.32,-16.96 -19.58,-28.26 -36.32,-28.26"
         style="fill:#523209;fill-opacity:1;fill-rule:nonzero;stroke:none"
         id="path166"
         inkscape:connector-curvature="0" /><path
         d="m 2856.48,2540.06 c -19.8,0 -36.35,15.51 -37.42,35.51 -1.09,20.69 14.8,38.35 35.47,39.44 367.36,19.4 591.2,409.24 646.45,557.8 7.22,19.4 28.78,29.3 48.21,22.08 19.42,-7.21 29.3,-28.81 22.08,-48.21 -60.02,-161.42 -305.07,-585.03 -712.77,-606.57 -0.68,-0.03 -1.35,-0.05 -2.02,-0.05"
         style="fill:#523209;fill-opacity:1;fill-rule:nonzero;stroke:none"
         id="path168"
         inkscape:connector-curvature="0" /><path
         d="m 5026.55,2308.5 c -18.75,0 -34.95,14.02 -37.19,33.1 -70.77,599.08 -174.3,925.53 -257.49,1187.83 -38.28,120.73 -74.45,234.76 -101.57,356.7 -52.37,235.77 -118.28,362.68 -218.05,554.76 -58.59,112.82 -131.52,253.22 -218.55,450.18 -8.38,18.95 0.2,41.09 19.14,49.46 18.98,8.36 41.09,-0.21 49.46,-19.14 86.08,-194.8 158.4,-334.05 216.51,-445.93 98.81,-190.25 170.21,-327.71 224.71,-573.05 26.39,-118.71 60.43,-226.03 99.84,-350.3 84.15,-265.34 188.88,-595.56 260.47,-1201.72 2.43,-20.57 -12.27,-39.21 -32.84,-41.63 -1.49,-0.19 -2.97,-0.26 -4.44,-0.26"
         style="fill:#523209;fill-opacity:1;fill-rule:nonzero;stroke:none"
         id="path170"
         inkscape:connector-curvature="0" /><path
         d="m 4593.07,503.184 c -138.25,0 -247.72,23.789 -334.64,72.714 -210.96,118.489 -376.24,486.152 -273.12,782.582 47.38,136.14 194.57,382.91 405.8,602.98 171.4,178.58 435.52,391.45 720.35,391.45 l 7.01,-0.04 c 245.76,-2.99 591.87,-209.49 591.87,-659.22 0,-265.97 -59.72,-1136.462 -828.3,-1171.365 -23.8,-1.086 -52.28,-3.769 -85.26,-6.875 -57.76,-5.449 -129.65,-12.226 -203.71,-12.226 z m 518.39,1774.726 c -258.41,0 -504.94,-200.33 -666.25,-368.39 -194.39,-202.52 -342.87,-442.91 -389.05,-575.69 -90.02,-258.71 57.16,-590.412 239.03,-692.56 75.43,-42.454 172.85,-63.086 297.88,-63.086 70.54,0 137.55,6.32 196.67,11.894 33.96,3.203 63.28,5.965 88.9,7.129 278.69,12.656 485.1,148 613.53,402.258 124.57,246.625 143.17,540.785 143.17,694.185 0,398.63 -302.79,581.61 -517.8,584.22 l -6.08,0.04"
         style="fill:#523209;fill-opacity:1;fill-rule:nonzero;stroke:none"
         id="path172"
         inkscape:connector-curvature="0" /><path
         d="m 3330.97,294.922 c -44.6,0 -92.27,2.59 -143.31,8.086 -12.61,1.355 -23.68,8.996 -29.43,20.301 -8.35,16.468 -202.68,406.593 -16.28,695.661 11.21,17.41 34.4,22.44 51.84,11.2 17.41,-11.22 22.42,-34.44 11.19,-51.838 -142.37,-220.793 -22.62,-525.844 11.65,-602.863 333.9,-31.16 546.23,67.41 631.43,293.074 104.21,276 -23.81,626.717 -63.73,656.317 -18.1,9.1 -25.74,31.02 -17.05,49.45 8.81,18.74 31.15,26.8 49.89,17.96 87.2,-41.04 197.41,-415.54 118.06,-698.274 -52.74,-187.969 -201.7,-399.062 -604.26,-399.074"
         style="fill:#523209;fill-opacity:1;fill-rule:nonzero;stroke:none"
         id="path174"
         inkscape:connector-curvature="0" /><path
         d="m 2600.34,394.199 c -15.82,0 -29.96,9.942 -35.3,24.844 -15.02,41.906 -88.22,255.383 -54.46,343.086 7.44,19.328 29.15,28.945 48.47,21.523 19.33,-7.441 28.97,-29.148 21.53,-48.476 -16.06,-41.688 15.31,-172.207 46.36,-265.586 277.15,8.223 448.18,142.375 449.93,143.781 16.17,12.906 39.73,10.32 52.68,-5.805 12.95,-16.121 10.43,-39.656 -5.67,-52.632 -8.14,-6.575 -203.05,-160.735 -523.54,-160.735"
         style="fill:#523209;fill-opacity:1;fill-rule:nonzero;stroke:none"
         id="path176"
         inkscape:connector-curvature="0" /><path
         d="m 1880.95,424.746 c -15.3,0 -29.2,9.344 -34.87,23.758 -8.06,20.469 -195,504.906 15.06,824.216 109.18,165.97 304.17,254.57 579.57,263.33 20.72,0.43 38.02,-15.59 38.68,-36.28 0.66,-20.71 -15.59,-38.02 -36.29,-38.68 -249.59,-7.95 -424.31,-85.18 -519.3,-229.58 -163.14,-247.975 -51.82,-627.584 -17.21,-729.576 293.36,26.523 515.13,135.351 659.49,323.73 110.16,143.762 131.18,280.706 131.37,282.066 3,20.5 22.08,34.6 42.52,31.7 20.5,-2.98 34.69,-22.03 31.7,-42.52 -0.93,-6.37 -24.16,-157.789 -146.06,-316.871 -111.78,-145.848 -331.23,-325.879 -741.98,-355.195 -0.9,-0.067 -1.78,-0.098 -2.68,-0.098"
         style="fill:#523209;fill-opacity:1;fill-rule:nonzero;stroke:none"
         id="path178"
         inkscape:connector-curvature="0" /><path
         d="m 1414.48,609.121 c -215.6,0 -371.51,72.754 -476.16,149.824 -177.097,130.43 -247.265,297.615 -250.164,304.665 -5.851,14.24 -2.414,30.61 8.68,41.28 343.314,330.4 676.044,389.51 894.644,380.88 238.14,-9.38 393.27,-97.22 399.76,-100.95 17.95,-10.33 24.12,-33.26 13.79,-51.21 -10.33,-17.92 -33.21,-24.11 -51.17,-13.81 -2.35,1.34 -149.04,83.38 -369.1,91.16 -288.17,10.21 -562.56,-104.66 -816.311,-341.53 24.649,-47.64 92.364,-161.176 217.09,-252.106 C 1201,660.246 1477.54,640.848 1807.48,759.637 c 19.5,7.004 40.98,-3.086 47.99,-22.578 7.01,-19.481 -3.09,-40.965 -22.58,-47.985 -159.04,-57.265 -298.03,-79.953 -418.41,-79.953"
         style="fill:#523209;fill-opacity:1;fill-rule:nonzero;stroke:none"
         id="path180"
         inkscape:connector-curvature="0" /><path
         d="m 2024.24,1751.5 c -19.96,0 -40.34,0.75 -60.58,2.26 -335.07,24.87 -477.49,216.5 -508.82,325.81 -49.19,172.36 6.82,407.61 142.68,599.36 164.67,232.39 413.96,369.88 701.98,387.15 214.13,12.92 373.46,-45.33 472.46,-172.1 136.76,-175.09 110.89,-426.39 96.49,-484.1 -21.64,-86.34 -291.57,-658.38 -844.21,-658.38 z m 332.04,1241.33 c -16.9,0 -34.49,-0.54 -52.28,-1.61 -357.37,-21.43 -557.68,-232.03 -645.28,-355.65 -123.23,-173.92 -174.95,-384.07 -131.77,-535.37 2.85,-9.93 74.17,-244.32 442.26,-271.66 18.4,-1.35 36.92,-2.04 55.03,-2.04 497.45,0 752.67,526.61 771.45,601.57 11.77,47.14 34.06,270.09 -82.83,419.75 -75.14,96.22 -195.11,145.01 -356.58,145.01"
         style="fill:#523209;fill-opacity:1;fill-rule:nonzero;stroke:none"
         id="path182"
         inkscape:connector-curvature="0" /><path
         d="m 838.625,1125.84 c -20.711,0 -37.5,16.79 -37.5,37.5 0,257.08 50.449,481.89 145.898,650.16 114.227,201.36 288.987,323.2 519.417,362.13 20.44,3.45 39.78,-10.31 43.22,-30.73 3.46,-20.42 -10.3,-39.77 -30.72,-43.22 -524.502,-88.61 -602.815,-625.94 -602.815,-938.34 0,-20.71 -16.789,-37.5 -37.5,-37.5"
         style="fill:#523209;fill-opacity:1;fill-rule:nonzero;stroke:none"
         id="path184"
         inkscape:connector-curvature="0" /><path
         d="m 2411.36,1467.17 c -9.36,0 -18.71,3.47 -25.98,10.46 -172.59,165.87 -116.28,381.41 -113.79,390.51 5.44,19.97 26.08,31.75 46.05,26.3 19.95,-5.44 31.72,-26 26.33,-45.95 -2.04,-7.71 -46.31,-182.53 93.37,-316.78 14.94,-14.35 15.41,-38.1 1.06,-53.03 -7.36,-7.65 -17.2,-11.51 -27.04,-11.51"
         style="fill:#523209;fill-opacity:1;fill-rule:nonzero;stroke:none"
         id="path186"
         inkscape:connector-curvature="0" /><path
         d="m 1480.27,4362.66 c -35.49,0 -217.78,7.84 -322.33,162.65 -109.31,161.87 -93.06,421.94 48.32,772.98 7.6,18.83 28.79,28.19 47.83,21.14 16.64,-6.17 405.82,-160.04 267.61,-925.88 -3.11,-17.23 -17.91,-30.03 -35.41,-30.8 0,0 -2.11,-0.09 -6.02,-0.09 z m -219.82,868.45 c -115.65,-302.5 -129.72,-531.49 -40.36,-663.82 68.01,-100.71 179.11,-123.38 233.33,-128.32 57.15,348.46 -5.3,549.38 -69.01,657.36 -43.06,72.98 -92.35,113.99 -123.96,134.78"
         style="fill:#523209;fill-opacity:1;fill-rule:nonzero;stroke:none"
         id="path188"
         inkscape:connector-curvature="0" /><path
         d="m 1625.04,5106.46 c -12.66,0 -24.85,6.43 -31.86,17.71 -137.04,220.56 -172.89,401.81 -106.59,538.72 88.81,183.4 325.29,212.2 335.31,213.34 12.99,1.43 25.73,-3.89 33.76,-14.16 116.39,-148.81 157.01,-290.55 120.73,-421.32 -62.12,-223.87 -326.71,-327.51 -337.95,-331.8 -4.39,-1.68 -8.92,-2.49 -13.4,-2.49 z m 184.96,691.8 c -53.69,-10.64 -198.86,-49.73 -256.08,-168.42 -51.53,-106.86 -22.56,-254.2 86.06,-438.19 65.24,31.41 223.25,121.15 264.22,269.46 28.08,101.64 -3.61,214.96 -94.2,337.15"
         style="fill:#523209;fill-opacity:1;fill-rule:nonzero;stroke:none"
         id="path190"
         inkscape:connector-curvature="0" /><path
         d="m 1753.2,3200.96 h -0.09 c -329.07,0.04 -486.34,190.17 -560.31,349.67 -78.57,169.36 -80.69,336.34 -80.74,343.37 -0.08,10.82 4.53,21.16 12.63,28.34 8.1,7.17 18.9,10.51 29.65,9.13 354.05,-45.45 583.35,-215.98 713.36,-351.03 141.22,-146.69 198.07,-281.85 200.42,-287.53 4.14,-10 3.76,-21.3 -1.06,-31 -4.8,-9.68 -13.56,-16.83 -24.02,-19.59 -103.98,-27.44 -201.49,-41.36 -289.84,-41.36 z m -563.23,649.53 c 5.71,-58 22.5,-164.96 71.82,-270.36 94.41,-201.8 259.73,-304.13 491.33,-304.17 h 0.08 c 69.29,0 145.14,9.36 226.05,27.87 -26.17,48.65 -79.77,135.99 -167.82,226.91 -166.56,172.01 -375.45,279.44 -621.46,319.75"
         style="fill:#523209;fill-opacity:1;fill-rule:nonzero;stroke:none"
         id="path192"
         inkscape:connector-curvature="0" /><path
         d="m 2374.84,3021.61 c -5.63,0 -11.35,1.28 -16.73,3.96 -204.74,102.38 -373.57,280.86 -501.81,530.5 -101.34,197.25 -177.73,439.36 -227.07,719.59 -83.63,475.08 -60.25,902.84 -60,907.1 1.19,20.69 18.83,36.67 39.6,35.28 20.67,-1.18 36.47,-18.92 35.28,-39.59 -0.24,-4.19 -23.12,-424.49 59.23,-891.16 75.09,-425.52 255.45,-978.2 688.3,-1194.62 18.53,-9.27 26.04,-31.79 16.78,-50.31 -6.57,-13.15 -19.81,-20.75 -33.58,-20.75"
         style="fill:#523209;fill-opacity:1;fill-rule:nonzero;stroke:none"
         id="path194"
         inkscape:connector-curvature="0" /><path
         d="m 1747.09,3844.58 c -13.69,0 -26.88,7.52 -33.48,20.58 l -262.27,518.12 c -9.36,18.48 -1.95,41.04 16.52,50.39 18.5,9.34 41.05,1.97 50.39,-16.52 l 262.27,-518.13 c 9.36,-18.47 1.95,-41.03 -16.52,-50.39 -5.43,-2.74 -11.21,-4.05 -16.91,-4.05"
         style="fill:#523209;fill-opacity:1;fill-rule:nonzero;stroke:none"
         id="path196"
         inkscape:connector-curvature="0" /><path
         d="m 3144.32,978.77 c -13.84,0 -27.76,0.41 -41.8,1.23 -252.81,14.785 -473.66,157.12 -549.73,253.46 -191.44,242.3 -143.62,539.29 146.19,907.9 121.38,154.46 353.58,375.75 622.44,631.98 513.46,489.36 1152.48,1098.36 1215.13,1448.63 3.66,20.39 23.1,33.97 43.52,30.32 20.39,-3.65 33.95,-23.14 30.31,-43.52 -66.98,-374.43 -688.69,-966.95 -1237.22,-1489.72 -266.76,-254.23 -497.15,-473.8 -615.21,-624.04 -353.31,-449.37 -252.72,-680.39 -146.31,-815.06 65.48,-82.93 268.16,-211.8 495.26,-225.08 173.8,-10.16 324.65,47.5 448.48,171.39 172.93,172.85 1041.1,1098.48 1151.44,2350.21 1.81,20.63 20.05,35.82 40.64,34.07 20.64,-1.82 35.88,-20.02 34.06,-40.65 -43.28,-491.11 -206.52,-988.82 -485.18,-1479.28 -272.7,-479.95 -571.93,-801.44 -687.92,-917.39 -127.65,-127.7 -287.4,-194.45 -464.1,-194.45"
         style="fill:#523209;fill-opacity:1;fill-rule:nonzero;stroke:none"
         id="path198"
         inkscape:connector-curvature="0" /><path
         d="m 3915.38,840.598 c -14.06,0 -27.54,7.937 -33.94,21.484 -8.85,18.719 -0.84,41.07 17.88,49.93 l 108.59,51.328 c 18.75,8.828 41.1,0.828 49.93,-17.883 8.85,-18.719 0.84,-41.07 -17.88,-49.93 l -108.59,-51.328 c -5.17,-2.441 -10.64,-3.601 -15.99,-3.601"
         style="fill:#523209;fill-opacity:1;fill-rule:nonzero;stroke:none"
         id="path200"
         inkscape:connector-curvature="0" /></g></g></svg>