<?xml version="1.0" encoding="utf-8"?>

<!DOCTYPE svg PUBLIC "-//W3C//DTD SVG 1.1//EN" "http://www.w3.org/Graphics/SVG/1.1/DTD/svg11.dtd">
<svg version="1.1" id="Layer_1" xmlns="http://www.w3.org/2000/svg" xmlns:xlink="http://www.w3.org/1999/xlink" x="0px" y="0px"
	 viewBox="0 0 2560 1600" enable-background="new 0 0 2560 1600" xml:space="preserve">
<pattern  width="251" height="251" patternUnits="userSpaceOnUse" id="New_Pattern_11" viewBox="0 -251 251 251" overflow="visible">
	<g>
		<polygon fill="none" points="0,-251 251,-251 251,0 0,0 		"/>
		<g>
			<path fill="#367D2D" stroke="#367D2D" stroke-width="0.0213" d="M99.3812-212.2023c-3.5025,4.2957-5.8025,9.424-7.5432,14.652
				c3.5929-0.3225,7.2027-0.3629,10.8017-0.5631c4.8493-0.26,9.7958-0.6055,14.3868-2.3112
				c2.4461-0.9277,4.8875-2.4576,6.0032-4.9235c0.789-1.5925,0.8105-3.4179,0.6258-5.1486
				c-1.0441-1.4473-3.0381-1.4798-4.6384-1.2094c-3.3566,0.6256-6.5192,2.0182-9.5222,3.6049
				c1.6798-1.7079,3.7229-3.0026,5.8245-4.1256c2.1174-1.0965,4.4708-1.6514,6.84-1.8065
				c-0.9239-2.0549-2.2773-4.0087-4.2688-5.1469c-2.1926-1.3566-4.9539-1.3412-7.3726-0.6706
				C106.1142-218.5702,102.2469-215.7551,99.3812-212.2023z"/>
			<path fill="#367D2D" stroke="#367D2D" stroke-width="0.0213" d="M38.7977-99.3812c4.2957,3.5025,9.424,5.8025,14.652,7.5432
				c-0.3225-3.5929-0.3629-7.2027-0.5631-10.8017c-0.26-4.8493-0.6054-9.7958-2.3112-14.3868
				c-0.9278-2.4461-2.4576-4.8875-4.9235-6.0032c-1.5925-0.789-3.4179-0.8105-5.1486-0.6258
				c-1.4473,1.0441-1.4798,3.0381-1.2094,4.6384c0.6256,3.3566,2.0182,6.5192,3.6049,9.5222
				c-1.708-1.6798-3.0026-3.7229-4.1256-5.8245c-1.0965-2.1174-1.6514-4.4708-1.8065-6.84
				c-2.0549,0.9239-4.0087,2.2773-5.1469,4.2688c-1.3566,2.1926-1.3412,4.9539-0.6706,7.3726
				C32.4298-106.1142,35.2449-102.2469,38.7977-99.3812z"/>
			<path fill="#367D2D" stroke="#367D2D" stroke-width="0.0213" d="M151.6188-38.7977c3.5025-4.2957,5.8025-9.424,7.5432-14.652
				c-3.5929,0.3225-7.2027,0.3629-10.8017,0.5631c-4.8494,0.26-9.7958,0.6054-14.3868,2.3112
				c-2.4461,0.9278-4.8875,2.4576-6.0032,4.9235c-0.789,1.5925-0.8105,3.4179-0.6258,5.1486
				c1.0441,1.4473,3.0381,1.4798,4.6384,1.2094c3.3566-0.6256,6.5192-2.0182,9.5222-3.6049
				c-1.6798,1.708-3.7229,3.0026-5.8245,4.1256c-2.1174,1.0965-4.4708,1.6514-6.84,1.8065c0.924,2.0549,2.2773,4.0087,4.2688,5.1469
				c2.1926,1.3566,4.9539,1.3412,7.3726,0.6706C144.8858-32.4298,148.7531-35.2449,151.6188-38.7977z"/>
			<path fill="#367D2D" stroke="#367D2D" stroke-width="0.0213" d="M212.2023-151.6188c-4.2957-3.5025-9.424-5.8025-14.652-7.5432
				c0.3225,3.5929,0.3629,7.2027,0.5631,10.8017c0.26,4.8494,0.6055,9.7958,2.3112,14.3868
				c0.9277,2.4461,2.4576,4.8875,4.9235,6.0032c1.5925,0.789,3.4179,0.8105,5.1486,0.6258
				c1.4473-1.0441,1.4798-3.0381,1.2094-4.6384c-0.6256-3.3566-2.0182-6.5192-3.6049-9.5222
				c1.7079,1.6798,3.0026,3.7229,4.1256,5.8245c1.0965,2.1174,1.6514,4.4708,1.8065,6.84c2.0549-0.924,4.0087-2.2773,5.1469-4.2688
				c1.3566-2.1926,1.3412-4.9539,0.6706-7.3726C218.5702-144.8858,215.7551-148.7531,212.2023-151.6188z"/>
			<path fill="#367D2D" stroke="#367D2D" stroke-width="0.0213" d="M151.3668-212.2778c3.515,4.2856,5.8298,9.4071,7.5857,14.63
				c-3.5938-0.3121-7.2037-0.3419-10.8033-0.5318c-4.8501-0.2459-9.7975-0.577-14.3935-2.2694
				c-2.4488-0.9206-4.8946-2.4434-6.0175-4.9061c-0.7937-1.5902-0.8204-3.4155-0.6408-5.1467
				c1.0399-1.4504,3.0338-1.4886,4.6349-1.2229c3.3584,0.6158,6.525,1.9993,9.5327,3.5773
				c-1.6848-1.7031-3.7317-2.9918-5.8365-4.1086c-2.1206-1.0904-4.4756-1.6384-6.8452-1.7866
				c0.918-2.0576,2.2657-4.0153,4.2538-5.1593c2.1887-1.363,4.9499-1.3556,7.3706-0.692
				C144.6154-218.6261,148.4908-215.8223,151.3668-212.2778z"/>
			<path fill="#367D2D" stroke="#367D2D" stroke-width="0.0213" d="M38.7221-151.3668c4.2856-3.515,9.4071-5.8298,14.63-7.5857
				c-0.3121,3.5938-0.3419,7.2037-0.5317,10.8033c-0.2459,4.8501-0.577,9.7975-2.2694,14.3935
				c-0.9206,2.4488-2.4434,4.8946-4.9061,6.0175c-1.5902,0.7937-3.4155,0.8204-5.1467,0.6408
				c-1.4504-1.0399-1.4886-3.0338-1.2229-4.6349c0.6158-3.3584,1.9993-6.525,3.5772-9.5327
				c-1.7031,1.6848-2.9918,3.7317-4.1086,5.8365c-1.0904,2.1206-1.6384,4.4756-1.7866,6.8452
				c-2.0575-0.918-4.0153-2.2657-5.1593-4.2538c-1.363-2.1887-1.3556-4.9499-0.692-7.3706
				C32.3739-144.6154,35.1778-148.4908,38.7221-151.3668z"/>
			<path fill="#367D2D" stroke="#367D2D" stroke-width="0.0213" d="M99.6332-38.7221c-3.515-4.2856-5.8298-9.4071-7.5857-14.63
				c3.5938,0.3121,7.2037,0.3419,10.8033,0.5317c4.8501,0.2459,9.7975,0.577,14.3935,2.2694
				c2.4488,0.9206,4.8946,2.4434,6.0175,4.9061c0.7937,1.5902,0.8204,3.4155,0.6408,5.1467
				c-1.0399,1.4504-3.0338,1.4886-4.6349,1.2229c-3.3584-0.6158-6.525-1.9993-9.5327-3.5772
				c1.6847,1.7031,3.7317,2.9918,5.8365,4.1086c2.1206,1.0904,4.4756,1.6384,6.8452,1.7866
				c-0.918,2.0575-2.2657,4.0153-4.2538,5.1593c-2.1887,1.363-4.9499,1.3556-7.3706,0.692
				C106.3846-32.3739,102.5092-35.1778,99.6332-38.7221z"/>
			<path fill="#367D2D" stroke="#367D2D" stroke-width="0.0213" d="M212.2778-99.6332c-4.2856,3.515-9.4071,5.8298-14.63,7.5857
				c0.3121-3.5938,0.3419-7.2037,0.5318-10.8033c0.2459-4.8501,0.577-9.7975,2.2694-14.3935
				c0.9206-2.4488,2.4434-4.8946,4.9061-6.0175c1.5902-0.7937,3.4155-0.8204,5.1467-0.6408
				c1.4504,1.0399,1.4886,3.0338,1.2229,4.6349c-0.6158,3.3584-1.9993,6.525-3.5773,9.5327
				c1.7031-1.6847,2.9918-3.7317,4.1086-5.8365c1.0904-2.1206,1.6384-4.4756,1.7866-6.8452
				c2.0576,0.918,4.0153,2.2657,5.1593,4.2538c1.363,2.1887,1.3556,4.9499,0.692,7.3706
				C218.6261-106.3846,215.8223-102.5092,212.2778-99.6332z"/>
			<path fill="#367D2D" stroke="#367D2D" stroke-width="0.0213" d="M128.5367-186.9231c0.0188-2.7991-1.3709-5.3971-3.1368-7.4926
				c-1.7597,2.1007-3.1419,4.7027-3.115,7.5017c0.0638,2.4671,1.3727,4.6644,3.1351,6.3367
				C127.1775-182.2548,128.48-184.4559,128.5367-186.9231z"/>
			<path fill="#367D2D" stroke="#367D2D" stroke-width="0.0213" d="M180.5773-125.58c1.6723-1.7623,3.8696-3.0713,6.3367-3.1351
				c2.799-0.0269,5.401,1.3553,7.5017,3.115c-2.0955,1.7658-4.6935,3.1555-7.4926,3.1368
				C184.4559-122.52,182.2548-123.8225,180.5773-125.58z"/>
			<path fill="#367D2D" stroke="#367D2D" stroke-width="0.0213" d="M125.58-70.4227c1.7623,1.6724,3.0713,3.8697,3.1351,6.3367
				c0.0269,2.799-1.3553,5.4011-3.115,7.5017c-1.7658-2.0955-3.1555-4.6935-3.1368-7.4926
				C122.52-66.5441,123.8225-68.7452,125.58-70.4227z"/>
			<path fill="#367D2D" stroke="#367D2D" stroke-width="0.0213" d="M70.4227-125.42c-1.6724,1.7623-3.8697,3.0713-6.3367,3.1351
				c-2.799,0.0269-5.4011-1.3553-7.5017-3.115c2.0955-1.7658,4.6935-3.1555,7.4926-3.1368
				C66.5441-128.48,68.7452-127.1775,70.4227-125.42z"/>
			<path fill="#419931" stroke="#419931" stroke-width="0.0213" d="M110.1692-238.2339c-0.6183,2.7918-0.8839,5.9268,0.5384,8.5296
				c1.1063,2.0104,3.3707,3.1349,5.6289,3.0983c-0.8594-3.2855-0.3576-6.7268,0.6726-9.9104
				c-0.4958,2.4909-1.029,5.1213-0.4898,7.6281c0.5341,0.6073,0.7354,1.3902,0.827,2.174c0.6673-0.1879,1.3611-0.2569,2.0545-0.1996
				c1.1588-0.3015,2.0027-1.3693,2.5414-2.3951c1.1897-2.47,1.151-5.3184,0.9341-7.9922
				c-0.3117-4.4494-1.5109-8.7742-2.0876-13.1856c-0.8913,0.1743-1.5176,0.8975-2.2532,1.3716
				C114.8194-246.3776,111.3543-242.8307,110.1692-238.2339z"/>
			<path fill="#419931" stroke="#419931" stroke-width="0.0213" d="M12.7661-110.1692c2.7918,0.6183,5.9268,0.8839,8.5296-0.5384
				c2.0104-1.1063,3.1349-3.3707,3.0983-5.6289c-3.2855,0.8594-6.7268,0.3576-9.9104-0.6726
				c2.4909,0.4958,5.1213,1.029,7.6281,0.4898c0.6073-0.5341,1.3902-0.7354,2.174-0.827c-0.1879-0.6673-0.2569-1.3611-0.1996-2.0545
				c-0.3015-1.1588-1.3693-2.0027-2.3951-2.5414c-2.47-1.1897-5.3184-1.151-7.9922-0.9341
				c-4.4494,0.3117-8.7742,1.5109-13.1856,2.0876c0.1743,0.8913,0.8975,1.5176,1.3716,2.2532
				C4.6224-114.8194,8.1693-111.3543,12.7661-110.1692z"/>
			<path fill="#419931" stroke="#419931" stroke-width="0.0213" d="M140.8308-12.7661c0.6183-2.7918,0.8839-5.9268-0.5384-8.5296
				c-1.1063-2.0104-3.3707-3.1349-5.6289-3.0983c0.8594,3.2855,0.3576,6.7268-0.6726,9.9104
				c0.4958-2.4909,1.029-5.1213,0.4898-7.6281c-0.5341-0.6073-0.7354-1.3902-0.827-2.174
				c-0.6673,0.1879-1.3611,0.2569-2.0545,0.1996c-1.1588,0.3015-2.0028,1.3693-2.5414,2.3951
				c-1.1898,2.47-1.1511,5.3184-0.9341,7.9922c0.3117,4.4494,1.5109,8.7742,2.0876,13.1856
				c0.8913-0.1743,1.5176-0.8975,2.2532-1.3716C136.1806-4.6224,139.6457-8.1693,140.8308-12.7661z"/>
			<path fill="#419931" stroke="#419931" stroke-width="0.0213" d="M238.2339-140.8308c-2.7918-0.6183-5.9268-0.8839-8.5296,0.5384
				c-2.0104,1.1063-3.1349,3.3707-3.0983,5.6289c3.2855-0.8594,6.7268-0.3576,9.9104,0.6726
				c-2.4909-0.4958-5.1213-1.029-7.6281-0.4898c-0.6073,0.5341-1.3902,0.7354-2.174,0.827
				c0.1879,0.6673,0.2569,1.3611,0.1996,2.0545c0.3015,1.1588,1.3693,2.0028,2.3951,2.5414c2.47,1.1898,5.3184,1.1511,7.9922,0.9341
				c4.4494-0.3117,8.7742-1.5109,13.1856-2.0876c-0.1743-0.8913-0.8975-1.5176-1.3716-2.2532
				C246.3776-136.1806,242.8307-139.6457,238.2339-140.8308z"/>
			<path fill="#419931" stroke="#419931" stroke-width="0.0213" d="M140.5032-238.278c0.6264,2.79,0.9011,5.9242-0.5136,8.5311
				c-1.1004,2.0136-3.3615,3.1447-5.6199,3.1147c0.8499-3.288,0.3381-6.7279-0.7014-9.9084c0.503,2.4895,1.0439,5.1183,0.512,7.6266
				c-0.5324,0.6089-0.7314,1.3924-0.8206,2.1763c-0.6678-0.186-1.3619-0.2529-2.0551-0.1936
				c-1.1597-0.2982-2.0067-1.3635-2.5483-2.3877c-1.1969-2.4665-1.1665-5.315-0.9573-7.9894
				c0.2988-4.4503,1.4854-8.7785,2.0493-13.1916c0.8918,0.1717,1.5202,0.8931,2.2572,1.3651
				C135.8294-246.4081,139.3048-242.8713,140.5032-238.278z"/>
			<path fill="#419931" stroke="#419931" stroke-width="0.0213" d="M12.722-140.5032c2.79-0.6264,5.9242-0.9011,8.5311,0.5136
				c2.0136,1.1004,3.1447,3.3615,3.1147,5.6199c-3.288-0.8499-6.7279-0.3381-9.9084,0.7014c2.4895-0.503,5.1183-1.0439,7.6266-0.512
				c0.6089,0.5324,1.3924,0.7314,2.1764,0.8206c-0.186,0.6678-0.2529,1.3619-0.1936,2.0551
				c-0.2982,1.1597-1.3635,2.0067-2.3877,2.5483c-2.4665,1.1969-5.3151,1.1665-7.9894,0.9573
				c-4.4503-0.2988-8.7785-1.4854-13.1916-2.0493c0.1717-0.8918,0.8931-1.5202,1.3651-2.2572
				C4.5919-135.8294,8.1287-139.3048,12.722-140.5032z"/>
			<path fill="#419931" stroke="#419931" stroke-width="0.0213" d="M110.4968-12.722c-0.6264-2.79-0.9011-5.9242,0.5136-8.5311
				c1.1004-2.0136,3.3615-3.1447,5.6199-3.1147c-0.8499,3.288-0.3381,6.7279,0.7014,9.9084
				c-0.503-2.4895-1.0439-5.1183-0.512-7.6266c0.5324-0.6089,0.7314-1.3924,0.8206-2.1764c0.6678,0.186,1.3619,0.2529,2.0551,0.1936
				c1.1597,0.2982,2.0067,1.3635,2.5483,2.3877c1.1969,2.4665,1.1665,5.3151,0.9573,7.9894
				c-0.2988,4.4503-1.4854,8.7785-2.0493,13.1916c-0.8918-0.1717-1.5202-0.8931-2.2572-1.3651
				C115.1706-4.5919,111.6952-8.1287,110.4968-12.722z"/>
			<path fill="#419931" stroke="#419931" stroke-width="0.0213" d="M238.278-110.4968c-2.79,0.6264-5.9242,0.9011-8.5311-0.5136
				c-2.0136-1.1004-3.1447-3.3615-3.1147-5.6199c3.288,0.8499,6.7279,0.3381,9.9084-0.7014
				c-2.4895,0.503-5.1183,1.0439-7.6266,0.512c-0.6089-0.5324-1.3924-0.7314-2.1763-0.8206
				c0.186-0.6678,0.2529-1.3619,0.1936-2.0551c0.2982-1.1597,1.3635-2.0067,2.3877-2.5483c2.4665-1.1969,5.315-1.1665,7.9894-0.9573
				c4.4503,0.2988,8.7785,1.4854,13.1916,2.0493c-0.1717,0.8918-0.8931,1.5202-1.3651,2.2572
				C246.4081-115.1706,242.8713-111.6952,238.278-110.4968z"/>
			<path fill="#419931" stroke="#419931" stroke-width="0.0048" d="M105.083-197.1213c-4.0415-0.0305-7.8658,1.7086-11.1271,3.9837
				c-1.351,0.9501-2.7489,1.8858-3.8576,3.1264c4.2697,1.7776,8.4116,3.8548,12.7716,5.4049
				c2.6578,0.7956,5.4347,1.6433,8.2384,1.2087c1.6394-0.2354,3.2408-1.1991,3.9368-2.7445c0.0416-0.5625,0.06-1.1223,0.0851-1.6861
				c-2.7062-1.3804-5.7166-1.9211-8.6991-2.292c3.0772,0.0013,6.2784,0.362,8.9756,1.9592c0.837-2.305-0.0607-5.0188-1.9495-6.5246
				C111.1019-196.5514,108.0116-197.0643,105.083-197.1213"/>
			<path fill="#419931" stroke="#419931" stroke-width="0.0048" d="M53.8787-105.083c-0.0305,4.0415,1.7086,7.8658,3.9837,11.1271
				c0.9501,1.351,1.8858,2.7489,3.1264,3.8576c1.7776-4.2697,3.8548-8.4116,5.4049-12.7716
				c0.7956-2.6578,1.6433-5.4347,1.2088-8.2384c-0.2354-1.6394-1.1991-3.2408-2.7445-3.9368
				c-0.5625-0.0416-1.1223-0.06-1.6861-0.0851c-1.3804,2.7062-1.9211,5.7166-2.292,8.6991c0.0013-3.0772,0.362-6.2784,1.9592-8.9756
				c-2.305-0.837-5.0188,0.0607-6.5245,1.9495C54.4486-111.1019,53.9357-108.0116,53.8787-105.083"/>
			<path fill="#419931" stroke="#419931" stroke-width="0.0048" d="M145.917-53.8787c4.0414,0.0305,7.8658-1.7086,11.1271-3.9837
				c1.351-0.9501,2.7489-1.8858,3.8576-3.1264c-4.2697-1.7776-8.4116-3.8548-12.7716-5.4049
				c-2.6579-0.7956-5.4347-1.6433-8.2384-1.2088c-1.6394,0.2354-3.2408,1.1991-3.9368,2.7445
				c-0.0416,0.5625-0.06,1.1223-0.0851,1.6861c2.7062,1.3804,5.7166,1.9211,8.6991,2.292c-3.0771-0.0013-6.2784-0.362-8.9756-1.9592
				c-0.837,2.305,0.0607,5.0188,1.9495,6.5245C139.8981-54.4486,142.9884-53.9357,145.917-53.8787"/>
			<path fill="#419931" stroke="#419931" stroke-width="0.0048" d="M197.1213-145.917c0.0305-4.0414-1.7086-7.8658-3.9837-11.1271
				c-0.9501-1.351-1.8858-2.7489-3.1264-3.8576c-1.7776,4.2697-3.8548,8.4116-5.4049,12.7716
				c-0.7956,2.6579-1.6433,5.4347-1.2087,8.2384c0.2354,1.6394,1.1991,3.2408,2.7445,3.9368
				c0.5625,0.0416,1.1223,0.06,1.6861,0.0851c1.3804-2.7062,1.9211-5.7166,2.292-8.6991c-0.0013,3.0771-0.362,6.2784-1.9592,8.9756
				c2.305,0.837,5.0188-0.0607,6.5246-1.9495C196.5514-139.8981,197.0643-142.9884,197.1213-145.917"/>
			<path fill="#419931" stroke="#419931" stroke-width="0.0048" d="M145.7088-197.1803c4.0414-0.0422,7.8708,1.6858,11.1386,3.9514
				c1.3537,0.9462,2.7544,1.8778,3.8667,3.1152c-4.2645,1.79-8.4004,3.8792-12.7558,5.442
				c-2.6555,0.8033-5.4299,1.6591-8.2348,1.2327c-1.6401-0.2307-3.2443-1.1897-3.9447-2.7331
				c-0.0432-0.5623-0.0633-1.1221-0.09-1.6858c2.7022-1.3883,5.711-1.9377,8.6924-2.3173
				c-3.0771,0.0103-6.2773,0.3802-8.9698,1.9853c-0.8437-2.3025,0.0461-5.019,1.9305-6.5302
				C139.6916-196.593,142.7805-197.1148,145.7088-197.1803"/>
			<path fill="#419931" stroke="#419931" stroke-width="0.0048" d="M53.8197-145.7088c-0.0422-4.0414,1.6858-7.8708,3.9514-11.1386
				c0.9462-1.3537,1.8778-2.7544,3.1152-3.8667c1.79,4.2645,3.8792,8.4004,5.442,12.7558c0.8033,2.6555,1.6591,5.4299,1.2327,8.2348
				c-0.2306,1.6401-1.1897,3.2443-2.7331,3.9447c-0.5624,0.0432-1.1221,0.0633-1.6858,0.09
				c-1.3883-2.7022-1.9377-5.711-2.3173-8.6924c0.0103,3.0771,0.3803,6.2773,1.9853,8.9698
				c-2.3025,0.8437-5.019-0.0461-6.5302-1.9305C54.407-139.6916,53.8852-142.7805,53.8197-145.7088"/>
			<path fill="#419931" stroke="#419931" stroke-width="0.0048" d="M105.2912-53.8197c-4.0413,0.0422-7.8708-1.6858-11.1386-3.9514
				c-1.3537-0.9462-2.7544-1.8778-3.8667-3.1152c4.2645-1.79,8.4004-3.8792,12.7558-5.442
				c2.6555-0.8033,5.4299-1.6591,8.2348-1.2327c1.6401,0.2306,3.2443,1.1897,3.9447,2.7331c0.0432,0.5624,0.0633,1.1221,0.09,1.6858
				c-2.7022,1.3883-5.711,1.9377-8.6924,2.3173c3.0771-0.0103,6.2773-0.3803,8.9698-1.9853
				c0.8437,2.3025-0.0461,5.019-1.9305,6.5302C111.3084-54.407,108.2195-53.8852,105.2912-53.8197"/>
			<path fill="#419931" stroke="#419931" stroke-width="0.0048" d="M197.1803-105.2912c0.0422,4.0413-1.6858,7.8708-3.9514,11.1386
				c-0.9462,1.3537-1.8778,2.7544-3.1152,3.8667c-1.79-4.2645-3.8792-8.4004-5.442-12.7558
				c-0.8033-2.6555-1.6591-5.4299-1.2327-8.2348c0.2307-1.6401,1.1897-3.2443,2.7331-3.9447
				c0.5623-0.0432,1.1221-0.0633,1.6858-0.09c1.3883,2.7022,1.9377,5.711,2.3173,8.6924c-0.0103-3.0771-0.3802-6.2773-1.9853-8.9698
				c2.3025-0.8437,5.019,0.0461,6.5302,1.9305C196.593-111.3084,197.1148-108.2195,197.1803-105.2912"/>
			<path fill="#419931" stroke="#419931" stroke-width="0.0213" d="M130.2829-137.7893c-0.7223-1.1838-1.7001-2.1994-2.2619-3.4826
				c-0.7622-1.7442-1.4604-3.5692-1.5045-5.4969c0.4524,3.4941,2.4342,6.578,4.7271,9.1676
				c0.0625-0.1759,0.1257-0.3492,0.1862-0.5218c1.2789-0.8024,2.3336-2.0823,2.5472-3.6113
				c0.3531-2.3593-0.6334-4.6709-1.7226-6.7093c-1.9051-3.3887-4.3594-6.4016-6.8013-9.4165
				c-2.4332,3.0221-4.8787,6.0421-6.7739,9.4363c-1.0832,2.0416-2.063,4.356-1.7031,6.7143
				c0.2181,1.5284,1.2765,2.8052,2.5577,3.6039c0.061,0.1724,0.1247,0.3455,0.1877,0.5212
				c2.2854-2.5963,4.2581-5.6859,4.7004-9.1813c-0.0385,1.9279-0.7314,3.7549-1.4885,5.5013
				c-0.5581,1.2849-1.533,2.3032-2.2518,3.4892c1.4409,0.8256,3.2157,1.0256,4.8016,0.5659
				C127.0702-136.7543,128.8444-136.9595,130.2829-137.7893z"/>
			<path fill="#419931" stroke="#419931" stroke-width="0.0213" d="M137.2094-125.517c-0.4597-1.5859-0.2597-3.3607,0.5659-4.8016
				c1.1859,0.7189,2.2043,1.6937,3.4892,2.2518c1.7464,0.7571,3.5734,1.45,5.5013,1.4885c-3.4954-0.4423-6.585-2.415-9.1813-4.7004
				c0.1757-0.063,0.3488-0.1267,0.5212-0.1877c0.7987-1.2812,2.0755-2.3396,3.6039-2.5577
				c2.3583-0.3599,4.6727,0.6198,6.7143,1.7031c3.3942,1.8953,6.4142,4.3407,9.4363,6.7739
				c-3.015,2.442-6.0279,4.8962-9.4165,6.8013c-2.0385,1.0892-4.35,2.0757-6.7093,1.7226c-1.529-0.2136-2.8089-1.2684-3.6113-2.5472
				c-0.1726-0.0605-0.3459-0.1237-0.5218-0.1862c2.5897-2.2929,5.6735-4.2746,9.1676-4.727
				c-1.9278,0.0441-3.7527,0.7423-5.4969,1.5045c-1.2832,0.5619-2.2988,1.5397-3.4826,2.2619
				C136.9595-122.1556,136.7543-123.9298,137.2094-125.517z"/>
			<path fill="#419931" stroke="#419931" stroke-width="0.0213" d="M125.517-113.7906c1.5859-0.4597,3.3607-0.2597,4.8016,0.5659
				c-0.7189,1.1859-1.6937,2.2043-2.2518,3.4892c-0.7571,1.7464-1.45,3.5734-1.4885,5.5013c0.4423-3.4954,2.415-6.585,4.7004-9.1813
				c0.063,0.1757,0.1267,0.3488,0.1877,0.5212c1.2812,0.7987,2.3396,2.0755,2.5577,3.6039
				c0.3599,2.3583-0.6198,4.6727-1.7031,6.7143c-1.8953,3.3942-4.3407,6.4142-6.7739,9.4363
				c-2.442-3.015-4.8962-6.0279-6.8013-9.4165c-1.0892-2.0384-2.0757-4.35-1.7226-6.7093c0.2136-1.529,1.2684-2.8089,2.5472-3.6113
				c0.0605-0.1726,0.1237-0.3458,0.1862-0.5218c2.2929,2.5897,4.2746,5.6735,4.727,9.1676
				c-0.0441-1.9278-0.7423-3.7527-1.5045-5.4969c-0.5619-1.2832-1.5397-2.2988-2.2619-3.4826
				C122.1556-114.0405,123.9298-114.2457,125.517-113.7906z"/>
			<path fill="#419931" stroke="#419931" stroke-width="0.0213" d="M113.7906-125.483c0.4597,1.5859,0.2597,3.3607-0.5659,4.8016
				c-1.1859-0.7188-2.2043-1.6937-3.4892-2.2518c-1.7464-0.7571-3.5734-1.45-5.5013-1.4885c3.4954,0.4423,6.585,2.415,9.1813,4.7004
				c-0.1757,0.063-0.3488,0.1267-0.5212,0.1877c-0.7987,1.2812-2.0755,2.3396-3.6039,2.5577
				c-2.3583,0.3599-4.6727-0.6199-6.7143-1.7031c-3.3942-1.8953-6.4142-4.3407-9.4363-6.7739
				c3.015-2.442,6.0279-4.8962,9.4165-6.8013c2.0384-1.0892,4.35-2.0757,6.7093-1.7226c1.529,0.2137,2.8089,1.2684,3.6113,2.5472
				c0.1726,0.0605,0.3458,0.1237,0.5218,0.1862c-2.5897,2.2929-5.6735,4.2746-9.1676,4.7271
				c1.9278-0.0441,3.7527-0.7423,5.4969-1.5045c1.2832-0.5619,2.2988-1.5397,3.4826-2.2619
				C114.0405-128.8444,114.2457-127.0702,113.7906-125.483z"/>
			<path fill="#A9BD04" stroke="#A9BD04" stroke-width="0.0213" d="M127.6542-219.3416l0.0878-0.0755
				c0.4579-1.7085,0.6638-3.5475,0.1706-5.2723c-0.5247-1.8859-1.4116-3.6421-2.5642-5.2081
				c-1.148,1.5694-2.0298,3.3281-2.549,5.2156c-0.4882,1.7262-0.277,3.5646,0.1859,5.2718l0.088,0.0752
				c0.8289,0.6961,1.4581,1.6073,2.2938,2.2857C126.2007-217.73,126.8273-218.6431,127.6542-219.3416z"/>
			<path fill="#A9BD04" stroke="#A9BD04" stroke-width="0.0213" d="M217.0492-125.633c0.6784-0.8357,1.5896-1.4649,2.2857-2.2938
				l0.0752-0.088c1.7072-0.4628,3.5455-0.6741,5.2718-0.1859c1.8874,0.5192,3.6462,1.4011,5.2156,2.549
				c-1.5661,1.1525-3.3222,2.0395-5.2081,2.5642c-1.7248,0.4932-3.5638,0.2873-5.2723-0.1706l-0.0755-0.0878
				C218.6431-124.1727,217.73-124.7993,217.0492-125.633z"/>
			<path fill="#A9BD04" stroke="#A9BD04" stroke-width="0.0213" d="M125.633-33.9508c0.8357,0.6784,1.4649,1.5896,2.2938,2.2857
				l0.088,0.0752c0.4628,1.7072,0.6741,3.5455,0.1859,5.2718c-0.5192,1.8874-1.4011,3.6462-2.549,5.2156
				c-1.1525-1.566-2.0395-3.3222-2.5642-5.2081c-0.4932-1.7248-0.2873-3.5638,0.1706-5.2723l0.0878-0.0755
				C124.1727-32.3569,124.7993-33.27,125.633-33.9508z"/>
			<path fill="#A9BD04" stroke="#A9BD04" stroke-width="0.0213" d="M33.9508-125.367c-0.6784,0.8357-1.5896,1.4649-2.2857,2.2938
				l-0.0752,0.088c-1.7072,0.4629-3.5455,0.6741-5.2718,0.1859c-1.8874-0.5192-3.6462-1.4011-5.2156-2.549
				c1.566-1.1525,3.3222-2.0395,5.2081-2.5642c1.7248-0.4932,3.5638-0.2873,5.2723,0.1706l0.0755,0.0878
				C32.3569-126.8273,33.27-126.2007,33.9508-125.367z"/>
			<path fill="#A8BD04" stroke="#A8BD04" stroke-width="0.0213" d="M92.6209-144.6321c0.6136,0.9976,1.5691,1.7013,2.4262,2.4718
				c2.3912,2.0872,5.1809,3.7257,8.1784,4.7724c0.3961,0.1335,0.8041,0.2584,1.2277,0.2558c1.8505-0.0275,3.6963,0.306,5.541-0.0235
				c1.087,0.0245,2.1101-0.2804,3.0654-0.7485c0.4653-0.9567,0.7673-1.9807,0.7396-3.0676c0.3241-1.8457-0.0147-3.6905,0.0074-5.541
				c0.0014-0.4236-0.1247-0.8313-0.2593-1.227c-1.0554-2.9945-2.7019-5.7794-4.7961-8.1645
				c-0.773-0.8549-1.4794-1.8083-2.4789-2.419c-1.2268,3.2777-2.6797,6.4926-3.8761,9.7867
				C99.1057-147.3307,95.8951-145.8685,92.6209-144.6321z"/>
			<path fill="#A8BD04" stroke="#A8BD04" stroke-width="0.0213" d="M148.5367-148.6037c3.2941,1.1964,6.509,2.6493,9.7867,3.8761
				c-0.6107,0.9994-1.5641,1.7058-2.419,2.4789c-2.3851,2.0942-5.17,3.7408-8.1645,4.7961
				c-0.3957,0.1347-0.8033,0.2608-1.227,0.2593c-1.8505-0.0221-3.6953,0.3167-5.541-0.0074
				c-1.0869,0.0276-2.1109-0.2743-3.0676-0.7396c-0.4681-0.9553-0.773-1.9784-0.7485-3.0654
				c-0.3295-1.8447,0.004-3.6905-0.0235-5.541c-0.0027-0.4236,0.1222-0.8316,0.2558-1.2277
				c1.0466-2.9976,2.6851-5.7872,4.7724-8.1784c0.7705-0.8571,1.4742-1.8126,2.4718-2.4262
				C145.8685-155.1049,147.3307-151.8943,148.5367-148.6037z"/>
			<path fill="#A8BD04" stroke="#A8BD04" stroke-width="0.0213" d="M148.6037-102.4633c-1.1964,3.2941-2.6493,6.509-3.8761,9.7867
				c-0.9994-0.6107-1.7058-1.5641-2.4789-2.419c-2.0942-2.3851-3.7408-5.17-4.7961-8.1645
				c-0.1347-0.3957-0.2608-0.8033-0.2593-1.227c0.0221-1.8505-0.3167-3.6954,0.0074-5.541
				c-0.0276-1.0869,0.2743-2.1109,0.7396-3.0676c0.9553-0.4681,1.9784-0.773,3.0654-0.7485c1.8447-0.3295,3.6905,0.004,5.541-0.0235
				c0.4236-0.0027,0.8316,0.1222,1.2277,0.2558c2.9976,1.0466,5.7872,2.6851,8.1784,4.7724
				c0.8571,0.7705,1.8126,1.4742,2.4262,2.4718C155.1049-105.1315,151.8943-103.6693,148.6037-102.4633z"/>
			<path fill="#A8BD04" stroke="#A8BD04" stroke-width="0.0213" d="M102.4633-102.3963c-3.2941-1.1964-6.509-2.6493-9.7867-3.8761
				c0.6107-0.9994,1.5641-1.7058,2.419-2.4789c2.3851-2.0942,5.17-3.7407,8.1645-4.7961c0.3957-0.1347,0.8033-0.2608,1.227-0.2593
				c1.8505,0.0221,3.6954-0.3167,5.541,0.0074c1.0869-0.0276,2.1109,0.2743,3.0676,0.7396c0.4681,0.9553,0.773,1.9784,0.7485,3.0654
				c0.3295,1.8447-0.004,3.6905,0.0235,5.541c0.0027,0.4236-0.1222,0.8316-0.2558,1.2277
				c-1.0466,2.9976-2.6851,5.7872-4.7724,8.1784c-0.7705,0.8571-1.4742,1.8126-2.4718,2.4262
				C105.1315-95.8951,103.6693-99.1057,102.4633-102.3963z"/>
			<path fill="#46803A" stroke="#46803A" stroke-width="0.0213" d="M133.1404-224.1816c0.474-1.544,0.9817-3.1105,1.0399-4.7324
				c-0.5324,0.6089-0.7314,1.3924-0.8206,2.1763c-0.6678-0.1859-1.3619-0.2529-2.0551-0.1936
				c0.6145,0.3427,1.3107,0.4737,1.9995,0.5757c-1.0108,3.9102-3.1999,7.4482-5.8969,10.42
				c-0.6488,0.7053-1.3284,1.3783-2.0356,2.0191c-0.7091-0.6388-1.3907-1.3098-2.0415-2.0132
				c-2.7056-2.964-4.905-6.4956-5.9271-10.4029c0.6885-0.104,1.3843-0.2371,1.9978-0.5815
				c-0.6934-0.0573-1.3872,0.0117-2.0545,0.1996c-0.0916-0.7837-0.2928-1.5666-0.8269-2.174
				c0.0629,1.6218,0.5751,3.1868,1.0536,4.7294c1.5631,4.4103,4.343,8.3081,7.8004,11.4473
				C128.8216-215.861,131.5901-219.7668,133.1404-224.1816z"/>
			<path fill="#46803A" stroke="#46803A" stroke-width="0.0213" d="M212.7117-125.6267c3.1393-3.4574,7.0371-6.2373,11.4473-7.8004
				c1.5426-0.4785,3.1076-0.9907,4.7294-1.0536c-0.6073,0.5341-1.3903,0.7354-2.174,0.8269
				c0.1879,0.6673,0.2569,1.3611,0.1996,2.0545c-0.3445-0.6135-0.4775-1.3093-0.5815-1.9978
				c-3.9072,1.0222-7.4389,3.2216-10.4029,5.9271c-0.7034,0.6508-1.3744,1.3324-2.0132,2.0415
				c0.6409,0.7072,1.3139,1.3869,2.0191,2.0356c2.9718,2.697,6.5098,4.8861,10.42,5.8969c0.102-0.6888,0.233-1.385,0.5757-1.9995
				c0.0593,0.6932-0.0077,1.3872-0.1936,2.0551c0.784,0.0893,1.5675,0.2883,2.1763,0.8206
				c-1.6219-0.0582-3.1884-0.5659-4.7324-1.0399C219.7668-119.4099,215.861-122.1784,212.7117-125.6267z"/>
			<path fill="#46803A" stroke="#46803A" stroke-width="0.0213" d="M125.6267-38.2883c3.4574,3.1393,6.2373,7.0371,7.8004,11.4473
				c0.4785,1.5426,0.9907,3.1076,1.0536,4.7294c-0.5341-0.6073-0.7354-1.3903-0.8269-2.174
				c-0.6673,0.1879-1.3611,0.2569-2.0545,0.1996c0.6135-0.3445,1.3093-0.4775,1.9978-0.5815
				c-1.0222-3.9073-3.2216-7.4389-5.9271-10.4029c-0.6508-0.7034-1.3324-1.3744-2.0415-2.0132
				c-0.7072,0.6409-1.3869,1.3139-2.0356,2.0191c-2.697,2.9718-4.8861,6.5098-5.8969,10.4201
				c0.6888,0.102,1.385,0.233,1.9995,0.5757c-0.6932,0.0593-1.3872-0.0077-2.0551-0.1936c-0.0893,0.784-0.2883,1.5675-0.8206,2.1764
				c0.0582-1.6219,0.5659-3.1884,1.0399-4.7324C119.4099-31.2332,122.1784-35.139,125.6267-38.2883z"/>
			<path fill="#46803A" stroke="#46803A" stroke-width="0.0213" d="M38.2883-125.3733c-3.1393,3.4574-7.0371,6.2372-11.4473,7.8004
				c-1.5426,0.4785-3.1076,0.9907-4.7294,1.0536c0.6073-0.5341,1.3903-0.7354,2.174-0.8269
				c-0.1879-0.6673-0.2569-1.3611-0.1996-2.0545c0.3445,0.6135,0.4775,1.3093,0.5815,1.9978
				c3.9073-1.0222,7.4389-3.2216,10.4029-5.9271c0.7034-0.6508,1.3744-1.3324,2.0132-2.0415
				c-0.6409-0.7072-1.3139-1.3869-2.0191-2.0356c-2.9718-2.697-6.5098-4.8861-10.4201-5.8969
				c-0.102,0.6888-0.233,1.385-0.5757,1.9995c-0.0593-0.6932,0.0077-1.3872,0.1936-2.0551
				c-0.784-0.0893-1.5675-0.2883-2.1764-0.8206c1.6219,0.0582,3.1884,0.5659,4.7324,1.0399
				C31.2332-131.5901,35.139-128.8216,38.2883-125.3733z"/>
			<path fill="#477823" stroke="#477823" stroke-width="0.0213" d="M127.6542-219.3416c-0.8269,0.6985-1.4535,1.6116-2.2871,2.2924
				c-0.8357-0.6784-1.4649-1.5896-2.2938-2.2857c0.4219,1.2736,1.2635,2.3286,2.2951,3.1558
				C126.3974-217.0093,127.2359-218.0667,127.6542-219.3416z"/>
			<path fill="#477823" stroke="#477823" stroke-width="0.0213" d="M216.1791-125.6317c0.8273-1.0315,1.8822-1.8731,3.1558-2.2951
				c-0.6961,0.8289-1.6073,1.4581-2.2857,2.2938c0.6808,0.8337,1.5939,1.4603,2.2924,2.2871
				C218.0667-123.7641,217.0093-124.6026,216.1791-125.6317z"/>
			<path fill="#477823" stroke="#477823" stroke-width="0.0213" d="M125.6317-34.8209c1.0315,0.8272,1.8731,1.8822,2.2951,3.1558
				c-0.8289-0.6961-1.4581-1.6073-2.2938-2.2857c-0.8337,0.6808-1.4603,1.5939-2.2871,2.2924
				C123.7641-32.9333,124.6026-33.9907,125.6317-34.8209z"/>
			<path fill="#477823" stroke="#477823" stroke-width="0.0213" d="M34.8209-125.3683c-0.8272,1.0315-1.8822,1.8731-3.1558,2.2951
				c0.6961-0.8289,1.6073-1.4581,2.2857-2.2938c-0.6808-0.8337-1.5939-1.4603-2.2924-2.2871
				C32.9333-127.2359,33.9907-126.3974,34.8209-125.3683z"/>
			<path fill="#477F3C" stroke="#477F3C" stroke-width="0.0213" d="M127.4686-180.4274c2.1766-2.6835,4.7694-5.1317,7.8704-6.6991
				c0.1446,0.3177,0.2899,0.638,0.4397,0.9543c-0.0432-0.5624-0.0633-1.1221-0.09-1.6858
				c-4.1164,2.0181-7.5896,5.1408-10.2665,8.8411c-2.6877-3.6926-6.1699-6.8051-10.2921-8.8113
				c-0.0251,0.5638-0.0435,1.1236-0.0851,1.6861c0.149-0.3168,0.2933-0.6375,0.437-0.9556c3.1056,1.5584,5.7054,3.999,7.8898,6.6762
				c0.7423,0.9284,1.4261,1.897,2.0526,2.8996C126.048-178.5262,126.729-179.4969,127.4686-180.4274z"/>
			<path fill="#477F3C" stroke="#477F3C" stroke-width="0.0213" d="M177.5219-125.5756c1.0025-0.6264,1.9712-1.3103,2.8996-2.0526
				c2.6771-2.1844,5.1178-4.7842,6.6762-7.8898c-0.3181-0.1437-0.6388-0.288-0.9556-0.437c0.5625,0.0416,1.1223,0.06,1.6861,0.0851
				c-2.0061,4.1223-5.1187,7.6045-8.8113,10.2921c3.7004,2.6769,6.823,6.1501,8.8411,10.2665
				c-0.5637,0.0267-1.1234,0.0468-1.6858,0.09c0.3163-0.1499,0.6366-0.2951,0.9543-0.4397
				c-1.5674-3.1011-4.0156-5.6938-6.6991-7.8704C179.4969-124.271,178.5262-124.952,177.5219-125.5756z"/>
			<path fill="#477F3C" stroke="#477F3C" stroke-width="0.0213" d="M125.5756-73.4781c0.6264,1.0025,1.3103,1.9712,2.0526,2.8996
				c2.1844,2.6771,4.7842,5.1178,7.8898,6.6762c0.1437-0.3181,0.288-0.6388,0.437-0.9556c-0.0416,0.5625-0.06,1.1223-0.0851,1.6861
				c-4.1223-2.0062-7.6045-5.1187-10.2921-8.8113c-2.6769,3.7004-6.1501,6.823-10.2665,8.8411
				c-0.0267-0.5637-0.0468-1.1235-0.09-1.6858c0.1499,0.3163,0.2951,0.6366,0.4397,0.9543
				c3.1011-1.5674,5.6938-4.0156,7.8704-6.6991C124.271-71.5031,124.952-72.4738,125.5756-73.4781z"/>
			<path fill="#477F3C" stroke="#477F3C" stroke-width="0.0213" d="M73.4781-125.4244c-1.0025,0.6264-1.9712,1.3103-2.8996,2.0526
				c-2.6771,2.1844-5.1178,4.7842-6.6762,7.8898c0.3181,0.1437,0.6388,0.288,0.9556,0.437c-0.5625-0.0416-1.1223-0.06-1.6861-0.0851
				c2.0062-4.1222,5.1187-7.6045,8.8113-10.2921c-3.7004-2.6769-6.823-6.1501-8.8411-10.2665
				c0.5637-0.0267,1.1235-0.0468,1.6858-0.09c-0.3163,0.1499-0.6366,0.2951-0.9543,0.4397
				c1.5674,3.1011,4.0156,5.6938,6.6991,7.8704C71.5031-126.729,72.4738-126.048,73.4781-125.4244z"/>
			<path fill="#A8BD05" stroke="#A8BD05" stroke-width="0.0213" d="M98.436-169.7316c0.1165,0.1188,0.3534,0.3631,0.4718,0.4852
				c0.4473-0.0713,0.8987-0.1023,1.3494-0.1306c2.0034-0.3218,3.9672,0.3855,5.941,0.6123
				c3.6335,0.3727,7.2777,0.9053,10.9401,0.6759c1.6507-0.1568,3.3203-0.5363,4.7627-1.3795
				c1.1769-0.6565,1.6457-2.0113,1.9514-3.2409c0.1146-0.8111-0.7089-1.3725-1.4103-1.5216
				c-1.8559-0.6103-3.8041,0.0089-5.6881-0.3416c-1.1346,0.1475-2.2519,0.3836-3.3758,0.5899
				c2.9877-1.7506,6.6039-2.4604,10.0365-1.9917c-0.516-2.4196-2.5396-4.4221-4.9104-5.0621
				c-2.8026-0.8232-5.7878-0.2232-8.4844,0.7068C104.9749-178.4249,101.1927-174.2353,98.436-169.7316z"/>
			<path fill="#A8BD05" stroke="#A8BD05" stroke-width="0.0213" d="M81.2684-98.436c0.1188-0.1165,0.363-0.3534,0.4852-0.4718
				c-0.0713-0.4473-0.1023-0.8987-0.1306-1.3494c-0.3218-2.0034,0.3855-3.9672,0.6123-5.941
				c0.3727-3.6335,0.9053-7.2777,0.6759-10.9401c-0.1568-1.6507-0.5363-3.3203-1.3795-4.7627
				c-0.6565-1.1769-2.0113-1.6457-3.2409-1.9514c-0.8111-0.1146-1.3724,0.7089-1.5216,1.4103
				c-0.6103,1.8559,0.0089,3.8041-0.3416,5.6881c0.1475,1.1346,0.3836,2.2519,0.5899,3.3758
				c-1.7506-2.9877-2.4605-6.6039-1.9917-10.0365c-2.4196,0.516-4.4221,2.5396-5.0621,4.9104
				c-0.8232,2.8026-0.2232,5.7878,0.7069,8.4844C72.5751-104.9749,76.7647-101.1927,81.2684-98.436z"/>
			<path fill="#A8BD05" stroke="#A8BD05" stroke-width="0.0213" d="M152.5641-81.2684c-0.1165-0.1188-0.3534-0.363-0.4718-0.4852
				c-0.4473,0.0713-0.8987,0.1023-1.3494,0.1306c-2.0034,0.3218-3.9672-0.3855-5.941-0.6123
				c-3.6335-0.3727-7.2777-0.9053-10.9401-0.6759c-1.6507,0.1568-3.3203,0.5363-4.7627,1.3795
				c-1.1769,0.6565-1.6457,2.0113-1.9514,3.2409c-0.1146,0.8111,0.7089,1.3724,1.4103,1.5216
				c1.8559,0.6103,3.8041-0.0089,5.6882,0.3416c1.1346-0.1475,2.2519-0.3836,3.3758-0.5899
				c-2.9877,1.7506-6.6039,2.4605-10.0365,1.9917c0.516,2.4196,2.5396,4.4221,4.9104,5.0621
				c2.8026,0.8232,5.7878,0.2232,8.4844-0.7069C146.0251-72.5751,149.8073-76.7647,152.5641-81.2684z"/>
			<path fill="#A8BD05" stroke="#A8BD05" stroke-width="0.0213" d="M169.7316-152.5641c-0.1188,0.1165-0.3631,0.3534-0.4852,0.4718
				c0.0713,0.4473,0.1023,0.8987,0.1306,1.3494c0.3218,2.0034-0.3855,3.9672-0.6123,5.941
				c-0.3727,3.6335-0.9053,7.2777-0.6759,10.9401c0.1568,1.6507,0.5363,3.3203,1.3795,4.7627
				c0.6565,1.1769,2.0113,1.6457,3.2409,1.9514c0.8111,0.1146,1.3725-0.7089,1.5216-1.4103
				c0.6103-1.8559-0.0089-3.8041,0.3416-5.6882c-0.1475-1.1346-0.3836-2.2519-0.5899-3.3758
				c1.7506,2.9877,2.4604,6.6039,1.9917,10.0365c2.4196-0.516,4.4221-2.5396,5.0621-4.9104
				c0.8232-2.8026,0.2232-5.7878-0.7068-8.4844C178.4249-146.0251,174.2353-149.8073,169.7316-152.5641z"/>
			<path fill="#A8BD05" stroke="#A8BD05" stroke-width="0.0213" d="M152.4354-169.8101c-0.1161,0.1191-0.3523,0.3641-0.4704,0.4865
				c-0.4475-0.07-0.899-0.0997-1.3498-0.1267c-2.0044-0.316-3.9661,0.397-5.9392,0.6295c-3.6324,0.3833-7.275,0.9265-10.9381,0.7077
				c-1.6512-0.152-3.3219-0.5267-4.7666-1.3656c-1.1788-0.653-1.6515-2.0065-1.9608-3.2352
				c-0.117-0.8107,0.7049-1.3745,1.4059-1.5257c1.8542-0.6157,3.8042-0.0022,5.6871-0.3582c1.135,0.1442,2.2529,0.377,3.3775,0.5801
				c-2.9927-1.7419-6.611-2.4413-10.0423-1.9625c0.5089-2.4211,2.5267-4.4295,4.8957-5.0764
				c2.8002-0.8313,5.7871-0.24,8.4864,0.6822C145.8712-178.4844,149.6656-174.3057,152.4354-169.8101z"/>
			<path fill="#A8BD05" stroke="#A8BD05" stroke-width="0.0213" d="M81.1899-152.4354c0.1192,0.1161,0.3641,0.3523,0.4865,0.4704
				c-0.07,0.4475-0.0997,0.899-0.1267,1.3498c-0.316,2.0044,0.397,3.9661,0.6295,5.9392c0.3832,3.6324,0.9265,7.275,0.7077,10.9381
				c-0.152,1.6512-0.5267,3.3219-1.3656,4.7666c-0.653,1.1788-2.0065,1.6515-3.2352,1.9608
				c-0.8107,0.117-1.3745-0.7049-1.5257-1.4059c-0.6157-1.8542-0.0022-3.8042-0.3582-5.6871
				c0.1442-1.135,0.377-2.2529,0.5801-3.3775c-1.7419,2.9927-2.4413,6.611-1.9625,10.0423
				c-2.421-0.5089-4.4295-2.5267-5.0764-4.8957c-0.8313-2.8002-0.24-5.7871,0.6822-8.4864
				C72.5156-145.8712,76.6943-149.6656,81.1899-152.4354z"/>
			<path fill="#A8BD05" stroke="#A8BD05" stroke-width="0.0213" d="M98.5646-81.1899c0.1161-0.1192,0.3523-0.3641,0.4704-0.4865
				c0.4475,0.07,0.899,0.0997,1.3498,0.1267c2.0044,0.316,3.9661-0.397,5.9392-0.6295c3.6324-0.3832,7.275-0.9265,10.9381-0.7077
				c1.6512,0.152,3.3219,0.5267,4.7666,1.3656c1.1788,0.653,1.6515,2.0065,1.9608,3.2352c0.117,0.8107-0.7049,1.3745-1.4059,1.5257
				c-1.8541,0.6157-3.8041,0.0022-5.6871,0.3582c-1.135-0.1442-2.253-0.377-3.3775-0.5801
				c2.9927,1.7419,6.611,2.4413,10.0423,1.9625c-0.5089,2.421-2.5267,4.4295-4.8957,5.0764
				c-2.8002,0.8313-5.7871,0.24-8.4864-0.6822C105.1288-72.5156,101.3344-76.6943,98.5646-81.1899z"/>
			<path fill="#A8BD05" stroke="#A8BD05" stroke-width="0.0213" d="M169.8101-98.5646c-0.1191-0.1161-0.3641-0.3523-0.4865-0.4704
				c0.07-0.4475,0.0997-0.899,0.1267-1.3498c0.316-2.0044-0.397-3.9661-0.6295-5.9392c-0.3833-3.6324-0.9265-7.275-0.7077-10.9381
				c0.152-1.6512,0.5267-3.3219,1.3656-4.7666c0.653-1.1788,2.0065-1.6515,3.2352-1.9608c0.8107-0.117,1.3745,0.7049,1.5257,1.4059
				c0.6157,1.8541,0.0022,3.8041,0.3582,5.6871c-0.1442,1.135-0.377,2.253-0.5801,3.3775c1.7419-2.9927,2.4413-6.611,1.9625-10.0423
				c2.4211,0.5089,4.4295,2.5267,5.0764,4.8957c0.8313,2.8002,0.24,5.7871-0.6822,8.4864
				C178.4844-105.1288,174.3057-101.3344,169.8101-98.5646z"/>
			<path fill="#136312" stroke="#136312" stroke-width="0.0213" d="M116.7539-174.5725c0.7036-0.176,1.4112-0.368,2.1401-0.4198
				c1.574-0.1758,3.1765-0.3194,4.7492-0.0266c-0.0751-0.3191-0.1528-0.6389-0.2286-0.9554
				c-3.4327-0.4688-7.0489,0.2411-10.0365,1.9917C114.502-174.1889,115.6193-174.425,116.7539-174.5725z"/>
			<path fill="#136312" stroke="#136312" stroke-width="0.0213" d="M76.4275-116.7539c-0.176-0.7036-0.368-1.4112-0.4198-2.1401
				c-0.1758-1.574-0.3193-3.1765-0.0266-4.7492c-0.3191,0.0751-0.6389,0.1528-0.9554,0.2286
				c-0.4688,3.4327,0.2411,7.0489,1.9917,10.0365C76.8111-114.502,76.575-115.6193,76.4275-116.7539z"/>
			<path fill="#136312" stroke="#136312" stroke-width="0.0213" d="M134.2461-76.4275c-0.7036,0.176-1.4112,0.368-2.1401,0.4198
				c-1.574,0.1758-3.1765,0.3193-4.7492,0.0266c0.0751,0.3191,0.1528,0.6389,0.2286,0.9554
				c3.4327,0.4688,7.0489-0.2411,10.0365-1.9917C136.498-76.8111,135.3807-76.575,134.2461-76.4275z"/>
			<path fill="#136312" stroke="#136312" stroke-width="0.0213" d="M174.5725-134.2461c0.176,0.7036,0.368,1.4112,0.4198,2.1401
				c0.1758,1.574,0.3194,3.1765,0.0266,4.7492c0.3191-0.0751,0.6389-0.1528,0.9554-0.2286
				c0.4688-3.4327-0.2411-7.0489-1.9917-10.0365C174.1889-136.498,174.425-135.3807,174.5725-134.2461z"/>
			<path fill="#136312" stroke="#136312" stroke-width="0.0213" d="M134.1035-174.5977c-0.7041-0.174-1.4123-0.3639-2.1413-0.4136
				c-1.5745-0.1713-3.1774-0.3101-4.7493-0.0128c0.0742-0.3193,0.151-0.6393,0.2258-0.956
				c3.4313-0.4787,7.0495,0.2206,10.0423,1.9625C136.3565-174.2207,135.2385-174.4535,134.1035-174.5977z"/>
			<path fill="#136312" stroke="#136312" stroke-width="0.0213" d="M76.4023-134.1035c-0.174,0.7041-0.3639,1.4123-0.4136,2.1413
				c-0.1713,1.5745-0.3101,3.1774-0.0128,4.7493c-0.3193-0.0742-0.6393-0.151-0.956-0.2258
				c-0.4787-3.4313,0.2206-7.0495,1.9625-10.0423C76.7793-136.3565,76.5465-135.2385,76.4023-134.1035z"/>
			<path fill="#136312" stroke="#136312" stroke-width="0.0213" d="M116.8965-76.4023c0.7041,0.174,1.4123,0.3639,2.1413,0.4136
				c1.5745,0.1713,3.1775,0.3101,4.7493,0.0128c-0.0742,0.3193-0.151,0.6393-0.2258,0.956
				c-3.4313,0.4787-7.0495-0.2206-10.0423-1.9625C114.6435-76.7793,115.7615-76.5465,116.8965-76.4023z"/>
			<path fill="#136312" stroke="#136312" stroke-width="0.0213" d="M174.5977-116.8965c0.174-0.7041,0.3639-1.4123,0.4136-2.1413
				c0.1713-1.5745,0.3101-3.1775,0.0128-4.7493c0.3193,0.0742,0.6393,0.151,0.956,0.2258
				c0.4787,3.4313-0.2206,7.0495-1.9625,10.0423C174.2207-114.6435,174.4535-115.7615,174.5977-116.8965z"/>
			<path fill="#8DB62A" stroke="#8DB62A" stroke-width="0.0213" d="M116.7539-174.5725c1.884,0.3505,3.8322-0.2686,5.6882,0.3416
				c0.7014,0.1491,1.5249,0.7105,1.4103,1.5216c-0.3057,1.2297-0.7746,2.5845-1.9514,3.2409
				c-1.4423,0.8432-3.1119,1.2227-4.7627,1.3795c-3.6624,0.2294-7.3066-0.3032-10.9401-0.6759
				c-1.9737-0.2268-3.9375-0.9341-5.941-0.6123c2.3866,0.5428,4.8282,0.7737,7.2443,1.1525c2.917,0.3518,5.8506,0.7611,8.798,0.5954
				c2.0605-0.156,4.2431-0.3967,5.9916-1.6018c1.1477-0.7648,1.588-2.1295,2.1899-3.2968
				c-0.2321-0.6137-0.3243-1.3835-0.9711-1.7184c-1.4167-0.7847-3.0647-0.6272-4.616-0.7462
				C118.1651-174.9405,117.4575-174.7486,116.7539-174.5725z"/>
			<path fill="#8DB62A" stroke="#8DB62A" stroke-width="0.0213" d="M76.4275-116.7539c0.3505-1.884-0.2686-3.8322,0.3416-5.6882
				c0.1491-0.7014,0.7105-1.5249,1.5216-1.4103c1.2297,0.3057,2.5845,0.7746,3.2409,1.9514
				c0.8432,1.4423,1.2227,3.1119,1.3795,4.7627c0.2294,3.6624-0.3032,7.3066-0.6759,10.9401
				c-0.2268,1.9737-0.9341,3.9375-0.6123,5.941c0.5428-2.3866,0.7736-4.8282,1.1525-7.2443c0.3518-2.917,0.7611-5.8506,0.5954-8.798
				c-0.156-2.0605-0.3967-4.2431-1.6018-5.9916c-0.7648-1.1477-2.1295-1.588-3.2968-2.1899
				c-0.6137,0.2321-1.3835,0.3243-1.7184,0.9711c-0.7847,1.4167-0.6272,3.0647-0.7462,4.616
				C76.0595-118.1651,76.2514-117.4575,76.4275-116.7539z"/>
			<path fill="#8DB62A" stroke="#8DB62A" stroke-width="0.0213" d="M134.2461-76.4275c-1.884-0.3505-3.8322,0.2686-5.6882-0.3416
				c-0.7014-0.1491-1.5249-0.7105-1.4103-1.5216c0.3057-1.2297,0.7746-2.5845,1.9514-3.2409
				c1.4423-0.8432,3.1119-1.2227,4.7627-1.3795c3.6624-0.2294,7.3066,0.3032,10.9401,0.6759
				c1.9738,0.2268,3.9375,0.9341,5.941,0.6123c-2.3866-0.5428-4.8282-0.7736-7.2443-1.1525
				c-2.917-0.3518-5.8506-0.7611-8.798-0.5954c-2.0605,0.156-4.2431,0.3967-5.9916,1.6018
				c-1.1477,0.7648-1.5881,2.1295-2.1899,3.2968c0.2321,0.6137,0.3243,1.3835,0.9711,1.7184
				c1.4167,0.7847,3.0647,0.6272,4.616,0.7462C132.8349-76.0595,133.5425-76.2514,134.2461-76.4275z"/>
			<path fill="#8DB62A" stroke="#8DB62A" stroke-width="0.0213" d="M174.5725-134.2461c-0.3505,1.884,0.2686,3.8322-0.3416,5.6882
				c-0.1491,0.7014-0.7105,1.5249-1.5216,1.4103c-1.2297-0.3057-2.5845-0.7746-3.2409-1.9514
				c-0.8432-1.4423-1.2227-3.1119-1.3795-4.7627c-0.2294-3.6624,0.3032-7.3066,0.6759-10.9401
				c0.2268-1.9738,0.9341-3.9375,0.6123-5.941c-0.5428,2.3866-0.7737,4.8282-1.1525,7.2443
				c-0.3518,2.917-0.7611,5.8506-0.5954,8.798c0.156,2.0605,0.3967,4.2431,1.6018,5.9916c0.7648,1.1477,2.1295,1.5881,3.2968,2.1899
				c0.6137-0.2321,1.3835-0.3243,1.7184-0.9711c0.7847-1.4167,0.6272-3.0647,0.7462-4.616
				C174.9405-132.8349,174.7486-133.5425,174.5725-134.2461z"/>
			<path fill="#8DB62A" stroke="#8DB62A" stroke-width="0.0213" d="M134.1035-174.5977c-1.883,0.356-3.833-0.2575-5.6871,0.3581
				c-0.701,0.1512-1.5229,0.7149-1.4059,1.5257c0.3093,1.2288,0.7821,2.5822,1.9608,3.2352
				c1.4448,0.839,3.1155,1.2137,4.7666,1.3656c3.6631,0.2188,7.3057-0.3244,10.9381-0.7077
				c1.9731-0.2325,3.9348-0.9455,5.9392-0.6295c-2.385,0.5498-4.826,0.7877-7.2409,1.1736
				c-2.916,0.3603-5.8484,0.7781-8.7962,0.6209c-2.0609-0.15-4.2443-0.3844-5.9963-1.5844
				c-1.1499-0.7615-1.5942-2.1249-2.1995-3.2904c0.2303-0.6143,0.3203-1.3844,0.9661-1.7212
				c1.4144-0.7888,3.0629-0.6361,4.6138-0.7596C132.6913-174.9616,133.3994-174.7717,134.1035-174.5977z"/>
			<path fill="#8DB62A" stroke="#8DB62A" stroke-width="0.0213" d="M76.4023-134.1035c0.356,1.883-0.2575,3.833,0.3581,5.6871
				c0.1512,0.701,0.7149,1.5229,1.5257,1.4059c1.2288-0.3093,2.5822-0.7821,3.2352-1.9608c0.839-1.4448,1.2137-3.1155,1.3656-4.7666
				c0.2188-3.6631-0.3244-7.3057-0.7077-10.9381c-0.2325-1.9731-0.9455-3.9348-0.6295-5.9392
				c0.5498,2.385,0.7877,4.826,1.1736,7.2409c0.3603,2.916,0.7781,5.8484,0.6209,8.7962c-0.15,2.0609-0.3844,4.2443-1.5844,5.9963
				c-0.7615,1.1499-2.1249,1.5942-3.2904,2.1995c-0.6143-0.2303-1.3844-0.3203-1.7212-0.9661
				c-0.7888-1.4144-0.6361-3.0629-0.7596-4.6138C76.0384-132.6913,76.2283-133.3994,76.4023-134.1035z"/>
			<path fill="#8DB62A" stroke="#8DB62A" stroke-width="0.0213" d="M116.8965-76.4023c1.883-0.356,3.833,0.2575,5.6871-0.3581
				c0.701-0.1512,1.5229-0.7149,1.4059-1.5257c-0.3093-1.2288-0.7821-2.5822-1.9608-3.2352
				c-1.4448-0.839-3.1155-1.2137-4.7666-1.3656c-3.6631-0.2188-7.3057,0.3244-10.9381,0.7077
				c-1.9731,0.2325-3.9348,0.9455-5.9392,0.6295c2.385-0.5498,4.826-0.7877,7.2409-1.1736c2.916-0.3603,5.8484-0.7781,8.7963-0.6209
				c2.0609,0.15,4.2443,0.3844,5.9963,1.5844c1.1499,0.7615,1.5942,2.1249,2.1995,3.2904
				c-0.2303,0.6143-0.3203,1.3844-0.9661,1.7212c-1.4144,0.7888-3.0629,0.6361-4.6138,0.7596
				C118.3087-76.0384,117.6006-76.2283,116.8965-76.4023z"/>
			<path fill="#8DB62A" stroke="#8DB62A" stroke-width="0.0213" d="M174.5977-116.8965c-0.356-1.883,0.2575-3.833-0.3581-5.6871
				c-0.1512-0.701-0.7149-1.5229-1.5257-1.4059c-1.2288,0.3093-2.5822,0.7821-3.2352,1.9608
				c-0.839,1.4448-1.2137,3.1155-1.3656,4.7666c-0.2188,3.6631,0.3244,7.3057,0.7077,10.9381
				c0.2325,1.9731,0.9455,3.9348,0.6295,5.9392c-0.5498-2.385-0.7877-4.826-1.1736-7.2409
				c-0.3603-2.916-0.7781-5.8484-0.6209-8.7963c0.15-2.0609,0.3844-4.2443,1.5844-5.9963c0.7615-1.1499,2.1249-1.5942,3.2904-2.1995
				c0.6143,0.2303,1.3844,0.3203,1.7212,0.9661c0.7888,1.4144,0.6361,3.0629,0.7596,4.6138
				C174.9616-118.3087,174.7717-117.6006,174.5977-116.8965z"/>
			<path fill="#155E1D" stroke="#155E1D" stroke-width="0.0213" d="M116.2995-167.6292c-2.9474,0.1657-5.881-0.2436-8.798-0.5954
				c-2.4161-0.3789-4.8577-0.6097-7.2443-1.1525c-0.4507,0.0283-0.9021,0.0593-1.3494,0.1306
				c-0.1016,0.1601-0.3054,0.4828-0.4076,0.6456c4.2078,0.4228,8.3594,1.2978,12.5764,1.6499
				c2.872,0.2957,5.8205,0.4419,8.6509-0.2246c1.4661-0.3178,2.9258-1.0163,3.829-2.2546c0.6697-0.8865,0.8797-2.0136,0.9246-3.0975
				c-0.6019,1.1673-1.0423,2.5319-2.1899,3.2968C120.5426-168.0259,118.36-167.7852,116.2995-167.6292z"/>
			<path fill="#155E1D" stroke="#155E1D" stroke-width="0.0213" d="M83.3708-116.2995c0.1657,2.9474-0.2436,5.881-0.5954,8.798
				c-0.3789,2.4161-0.6097,4.8577-1.1525,7.2443c0.0283,0.4507,0.0593,0.9021,0.1306,1.3494
				c0.1601,0.1016,0.4828,0.3054,0.6456,0.4076c0.4228-4.2078,1.2978-8.3594,1.6499-12.5764
				c0.2957-2.872,0.4419-5.8205-0.2246-8.6509c-0.3178-1.4661-1.0163-2.9258-2.2546-3.829
				c-0.8865-0.6697-2.0136-0.8797-3.0975-0.9246c1.1673,0.6019,2.5319,1.0423,3.2968,2.1899
				C82.9741-120.5426,83.2148-118.36,83.3708-116.2995z"/>
			<path fill="#155E1D" stroke="#155E1D" stroke-width="0.0213" d="M134.7005-83.3708c2.9474-0.1657,5.881,0.2436,8.798,0.5954
				c2.4161,0.3789,4.8578,0.6097,7.2443,1.1525c0.4507-0.0283,0.9021-0.0593,1.3494-0.1306
				c0.1016-0.1601,0.3054-0.4828,0.4076-0.6456c-4.2078-0.4228-8.3594-1.2978-12.5764-1.6499
				c-2.872-0.2957-5.8204-0.4419-8.6509,0.2246c-1.4661,0.3178-2.9258,1.0163-3.829,2.2546
				c-0.6697,0.8865-0.8797,2.0136-0.9246,3.0975c0.6019-1.1673,1.0423-2.5319,2.1899-3.2968
				C130.4574-82.9741,132.64-83.2148,134.7005-83.3708z"/>
			<path fill="#155E1D" stroke="#155E1D" stroke-width="0.0213" d="M167.6292-134.7005c-0.1657-2.9474,0.2436-5.881,0.5954-8.798
				c0.3789-2.4161,0.6097-4.8578,1.1525-7.2443c-0.0283-0.4507-0.0593-0.9021-0.1306-1.3494
				c-0.1601-0.1016-0.4828-0.3054-0.6456-0.4076c-0.4228,4.2078-1.2978,8.3594-1.6499,12.5764
				c-0.2957,2.872-0.4419,5.8204,0.2246,8.6509c0.3178,1.4661,1.0163,2.9258,2.2546,3.829
				c0.8865,0.6697,2.0136,0.8797,3.0975,0.9246c-1.1673-0.6019-2.5319-1.0423-3.2968-2.1899
				C168.0259-130.4574,167.7852-132.64,167.6292-134.7005z"/>
			<path fill="#155E1D" stroke="#155E1D" stroke-width="0.0213" d="M134.5781-167.6557c2.9479,0.1572,5.8803-0.2606,8.7962-0.6209
				c2.415-0.3859,4.856-0.6238,7.2409-1.1736c0.4508,0.027,0.9022,0.0567,1.3498,0.1267c0.102,0.1598,0.3068,0.482,0.4095,0.6444
				c-4.2066,0.4351-8.3556,1.3221-12.5716,1.6865c-2.8711,0.304-5.8192,0.4588-8.6515-0.1995
				c-1.467-0.3135-2.9288-1.0078-3.8355-2.2435c-0.6722-0.8845-0.8856-2.011-0.9336-3.0948
				c0.6053,1.1655,1.0496,2.5289,2.1995,3.2904C130.3338-168.0401,132.5171-167.8057,134.5781-167.6557z"/>
			<path fill="#155E1D" stroke="#155E1D" stroke-width="0.0213" d="M83.3443-134.5781c0.1572-2.9479-0.2606-5.8803-0.6209-8.7962
				c-0.3859-2.415-0.6238-4.856-1.1736-7.2409c0.027-0.4508,0.0567-0.9022,0.1267-1.3498c0.1598-0.102,0.482-0.3068,0.6444-0.4095
				c0.4351,4.2066,1.3221,8.3556,1.6865,12.5716c0.304,2.8711,0.4588,5.8192-0.1995,8.6515
				c-0.3135,1.467-1.0078,2.9288-2.2435,3.8355c-0.8845,0.6722-2.011,0.8856-3.0948,0.9336
				c1.1655-0.6053,2.5289-1.0496,3.2904-2.1995C82.9599-130.3338,83.1943-132.5171,83.3443-134.5781z"/>
			<path fill="#155E1D" stroke="#155E1D" stroke-width="0.0213" d="M116.4219-83.3443c-2.9479-0.1572-5.8803,0.2606-8.7963,0.6209
				c-2.415,0.3859-4.8559,0.6238-7.2409,1.1736c-0.4508-0.027-0.9022-0.0567-1.3498-0.1267
				c-0.102-0.1598-0.3068-0.482-0.4095-0.6444c4.2066-0.4351,8.3556-1.3221,12.5716-1.6865
				c2.8711-0.304,5.8192-0.4588,8.6515,0.1995c1.467,0.3135,2.9288,1.0078,3.8355,2.2435c0.6722,0.8845,0.8856,2.011,0.9336,3.0948
				c-0.6053-1.1655-1.0496-2.5289-2.1995-3.2904C120.6662-82.9599,118.4829-83.1943,116.4219-83.3443z"/>
			<path fill="#155E1D" stroke="#155E1D" stroke-width="0.0213" d="M167.6557-116.4219c-0.1572,2.9479,0.2606,5.8803,0.6209,8.7963
				c0.3859,2.415,0.6238,4.8559,1.1736,7.2409c-0.027,0.4508-0.0567,0.9022-0.1267,1.3498c-0.1598,0.102-0.482,0.3068-0.6444,0.4095
				c-0.4351-4.2066-1.3221-8.3556-1.6865-12.5716c-0.304-2.8711-0.4588-5.8192,0.1995-8.6515
				c0.3135-1.467,1.0078-2.9288,2.2435-3.8355c0.8845-0.6722,2.011-0.8856,3.0948-0.9336
				c-1.1655,0.6053-2.5289,1.0496-3.2904,2.1995C168.0401-120.6662,167.8057-118.4829,167.6557-116.4219z"/>
			<path fill="#93B42E" stroke="#93B42E" stroke-width="0.0213" d="M109.9943-137.1557c-1.8447,0.3295-3.6905-0.004-5.541,0.0235
				c1.0986,0.5468,2.3843,0.6643,3.5951,0.6855c1.8044-0.2796,3.7095-0.3044,5.3903-1.0796c0.7704-1.683,0.7896-3.5882,1.064-5.3934
				c-0.0247-1.2107-0.146-2.496-0.6959-3.5931c-0.0221,1.8506,0.3167,3.6954-0.0074,5.541
				c0.0276,1.0869-0.2743,2.1109-0.7396,3.0676C112.1043-137.4361,111.0813-137.1312,109.9943-137.1557z"/>
			<path fill="#93B42E" stroke="#93B42E" stroke-width="0.0213" d="M137.9042-137.9403c0.9567,0.4653,1.9807,0.7673,3.0676,0.7396
				c1.8457,0.3241,3.6905-0.0147,5.541,0.0074c-1.0971,0.55-2.3824,0.6712-3.5931,0.6959c-1.8052-0.2744-3.7104-0.2936-5.3934-1.064
				c-0.7753-1.6808-0.8-3.5858-1.0796-5.3903c0.0212-1.2108,0.1387-2.4964,0.6855-3.5951c0.0275,1.8505-0.306,3.6963,0.0235,5.541
				C137.1312-139.9187,137.4361-138.8957,137.9042-137.9403z"/>
			<path fill="#93B42E" stroke="#93B42E" stroke-width="0.0213" d="M137.9403-113.0958c-0.4653,0.9567-0.7673,1.9807-0.7396,3.0676
				c-0.3241,1.8457,0.0147,3.6905-0.0074,5.541c-0.55-1.097-0.6712-2.3823-0.6959-3.5931c0.2744-1.8052,0.2936-3.7104,1.064-5.3934
				c1.6808-0.7753,3.5858-0.8,5.3903-1.0796c1.2108,0.0212,2.4964,0.1387,3.5951,0.6855c-1.8505,0.0275-3.6963-0.306-5.541,0.0235
				C139.9187-113.8688,138.8957-113.5639,137.9403-113.0958z"/>
			<path fill="#93B42E" stroke="#93B42E" stroke-width="0.0213" d="M113.0958-113.0597c-0.9567-0.4653-1.9807-0.7673-3.0676-0.7396
				c-1.8457-0.3241-3.6905,0.0147-5.541-0.0074c1.097-0.55,2.3823-0.6712,3.5931-0.6959c1.8052,0.2744,3.7104,0.2936,5.3934,1.064
				c0.7753,1.6808,0.8,3.5858,1.0796,5.3903c-0.0212,1.2108-0.1387,2.4964-0.6855,3.5951c-0.0275-1.8505,0.306-3.6963-0.0235-5.541
				C113.8688-111.0813,113.5639-112.1043,113.0958-113.0597z"/>
			<path fill="#195E1E" stroke="#195E1E" stroke-width="0.0213" d="M108.0484-136.4467c1.929,0.1102,3.9652,0.0028,5.784-0.687
				c0.6845-1.8208,0.786-3.8573,0.6702-5.786c-0.2744,1.8052-0.2936,3.7104-1.064,5.3934
				C111.7579-136.7511,109.8528-136.7263,108.0484-136.4467z"/>
			<path fill="#195E1E" stroke="#195E1E" stroke-width="0.0213" d="M137.5264-137.5613c1.683,0.7704,3.5882,0.7896,5.3934,1.064
				c-1.9287,0.1158-3.9652,0.0143-5.786-0.6702c-0.6898-1.8188-0.7972-3.855-0.687-5.784
				C136.7263-141.1472,136.7511-139.2421,137.5264-137.5613z"/>
			<path fill="#195E1E" stroke="#195E1E" stroke-width="0.0213" d="M137.5613-113.4736c-0.7704,1.683-0.7896,3.5882-1.064,5.3934
				c-0.1158-1.9287-0.0143-3.9652,0.6702-5.786c1.8188-0.6898,3.855-0.7972,5.784-0.687
				C141.1472-114.2737,139.2421-114.2489,137.5613-113.4736z"/>
			<path fill="#195E1E" stroke="#195E1E" stroke-width="0.0213" d="M113.4736-113.4387c-1.683-0.7704-3.5882-0.7896-5.3934-1.064
				c1.9287-0.1158,3.9652-0.0143,5.786,0.6702c0.6898,1.8188,0.7972,3.855,0.687,5.784
				C114.2737-109.8528,114.2489-111.7579,113.4736-113.4387z"/>
			<path fill="#477E3C" stroke="#477E3C" stroke-width="0.0213" d="M112.8771-131.4297c0.1726,0.0605,0.3458,0.1237,0.5218,0.1862
				c1.1006-1.028,2.0949-2.1499,2.9847-3.3465c1.1939-0.8933,2.3129-1.8909,3.3378-2.9945
				c-0.063-0.1757-0.1267-0.3488-0.1877-0.5212c-1.0334,1.2008-2.2558,2.2128-3.5582,3.1087
				C115.0833-133.6919,114.0749-132.4666,112.8771-131.4297z"/>
			<path fill="#477E3C" stroke="#477E3C" stroke-width="0.0213" d="M134.9969-135.0246c0.8959,1.3024,1.9078,2.5248,3.1087,3.5582
				c-0.1724,0.061-0.3455,0.1247-0.5212,0.1877c-1.1036-1.0248-2.1012-2.1438-2.9945-3.3378
				c-1.1965-0.8898-2.3184-1.8841-3.3465-2.9847c0.0625-0.1759,0.1257-0.3492,0.1862-0.5218
				C132.4666-136.9251,133.6919-135.9167,134.9969-135.0246z"/>
			<path fill="#477E3C" stroke="#477E3C" stroke-width="0.0213" d="M135.0246-116.0031c-1.3024,0.8959-2.5248,1.9078-3.5582,3.1087
				c-0.061-0.1724-0.1247-0.3455-0.1877-0.5212c1.0248-1.1036,2.1438-2.1012,3.3378-2.9945
				c0.8898-1.1965,1.8841-2.3184,2.9847-3.3465c0.1759,0.0625,0.3492,0.1257,0.5218,0.1862
				C136.9251-118.5334,135.9167-117.3081,135.0246-116.0031z"/>
			<path fill="#477E3C" stroke="#477E3C" stroke-width="0.0213" d="M116.0031-115.9754c-0.8959-1.3024-1.9078-2.5248-3.1087-3.5582
				c0.1724-0.061,0.3455-0.1247,0.5212-0.1877c1.1036,1.0248,2.1012,2.1438,2.9945,3.3378
				c1.1965,0.8898,2.3184,1.8841,3.3465,2.9847c-0.0625,0.1759-0.1257,0.3492-0.1862,0.5218
				C118.5334-114.0749,117.3081-115.0833,116.0031-115.9754z"/>
		</g>
	</g>
</pattern>
<rect fill="url(#New_Pattern_11)" width="2560" height="1600"/>
</svg>
